<?xml version="1.0" standalone="no"?>
<!DOCTYPE svg PUBLIC "-//W3C//DTD SVG 1.1//EN" "http://www.w3.org/Graphics/SVG/1.1/DTD/svg11.dtd" >
<svg xmlns="http://www.w3.org/2000/svg" xmlns:xlink="http://www.w3.org/1999/xlink" version="1.1">
<metadata>
Created by FontForge 20150824 at Sat Sep  3 03:31:32 2016
 By Everything Fonts
Copyright (c) 2003 by Bitstream, Inc. All Rights Reserved.
DejaVu changes are in public domain
Changes by Saber Rastikerdar are in public domain.
Non-Arabic(Latin) glyphs and data are imported from Roboto font under the Apache License, Version 2.0.
</metadata>
<defs>
<font id="Vazir-Bold" horiz-adv-x="0" >
  <font-face 
    font-family="Vazir"
    font-weight="700"
    font-stretch="normal"
    units-per-em="2048"
    panose-1="2 11 6 3 3 8 4 2 2 4"
    ascent="1638"
    descent="-410"
    bbox="-110 -907.278 2757 2270"
    underline-thickness="100"
    underline-position="-200"
    unicode-range="U+0020-FEFC"
  />
<missing-glyph horiz-adv-x="748" 
d="M68 0v1365h544v-1365h-544zM136 68h408v1229h-408v-1229z" />
    <glyph glyph-name="uni0622" unicode="&#x627;&#x653;" horiz-adv-x="626" 
d="M202 1351.64h273v-1351.74h-273v1351.74zM256 1573q-78 13 -156 -82l-41 -51l-139 193l20 29q129 190 313 154l118 -22q94 -18 171 38l46 34l110 -203l-27 -26q-118 -113 -305 -82z" />
    <glyph glyph-name="uni0623" unicode="&#x627;&#x654;" horiz-adv-x="544" 
d="M149 1351.64h273v-1351.74h-273v1351.74zM79 1772q-41 57 -41 128q0 152 130 222q94 49 217 19q44 -11 97 -41v-173l-36 16q-134 61 -207 18q-33 -19 -36 -54.5t19 -60t82 -42.5q38 -6 173 24l31 7v-176l-473 -106v173l67 16z" />
    <glyph glyph-name="afii57412" unicode="&#x648;&#x654;" horiz-adv-x="960" 
d="M285 1167q-41 57 -41 128q0 152 130 222q94 49 217 19q44 -11 97 -41v-173l-36 16q-134 61 -207 18q-33 -19 -36 -54.5t19 -60t82 -42.5q38 -6 173 24l31 7v-176l-473 -106v173l67 16zM374 310q37 -54 229 -27q-20 269 -133 268q-53 -1 -82 -56t-29 -131q0 -34 15 -54z
M875 285q8 -148 -9 -238q-30 -149 -86 -236q-179 -276 -636 -320l-46 -4l-49 270l55 4q350 28 463 231q-282 -25 -396 120q-72 92 -78 215q-12 239 129 399q95 108 233 115q390 21 420 -556z" />
    <glyph glyph-name="uni0625" unicode="&#x627;&#x655;" horiz-adv-x="544" 
d="M74 -417q-41 57 -41 128q0 152 130 222q94 49 217 19q44 -11 97 -41v-173l-36 16q-134 61 -207 18q-33 -19 -36 -54.5t19 -60t82 -42.5q38 -6 173 24l31 7v-176l-473 -106v173l67 16zM145 1503h273v-1502h-273v1502z" />
    <glyph glyph-name="afii57414" unicode="&#x64a;&#x654;" horiz-adv-x="1527" 
d="M344 1003q-41 57 -41 128q0 152 130 222q94 49 217 19q44 -11 97 -41v-173l-36 16q-134 61 -207 18q-33 -19 -36 -54.5t19 -60t82 -42.5q38 -6 173 24l31 7v-176l-473 -106v173l67 16zM733 -169q272 0 395 133q47 51 47 104q0 19 -30 21q-204 11 -272 39q-67 29 -99 97
t-22 160q32 308 255 429q141 78 349 53l48 -6l-21 -279h-68q-189 0 -254 -93q-31 -46 -39 -117q36 -5 101 -9q150 -9 236 -74t87 -184q0 -215 -178 -382q-179 -168 -540 -167q-299 1 -480 163q-182 161 -173 460q6 252 121 457l20 35l257 -75l-28 -54q-96 -185 -94.5 -361
t101.5 -263q101 -88 281 -87z" />
    <glyph glyph-name="uniFDF2" unicode="&#x627;&#xfedf;&#xfee0;&#xfeea;" horiz-adv-x="2883" arabic-form="isolated" 
d="M1377 1809v461h120v-461h-120zM1455 1453q-10 -34 -26 -60q-26 -41 -67 -62q-20 -10 -43.5 -15.5t-49.5 -5.5q-55 0 -92 24.5t-55.5 71t-18.5 112.5q0 11 1 25t3 33q4 38 12 91l2 12h105l-2 -17q-13 -91 -13 -119q0 -57 17.5 -81.5t53.5 -24.5q26 0 45 8t33 25t21.5 43.5
t8.5 62.5q0 7 0.5 14t0.5 14.5v15.5q0 11 0.5 22.5t-0.5 24.5q0 7 0.5 13.5t0.5 12.5v11q0 14 -1 19v15h104l1 -14q0 -19 1 -40.5t1 -46.5q0 -70 28 -102t88 -32q21 0 35 10.5t21.5 35.5t7.5 66q1 107 -10 171l-4 18h111l2 -13q6 -42 8 -87q2 -23 2.5 -46.5t0.5 -48.5
q0 -41 -5.5 -75t-17.5 -60q-12 -27 -30.5 -46t-42.5 -30q-7 -3 -14.5 -5.5t-15 -4.5t-14.5 -3t-14.5 -2t-14.5 -1q-79 -4 -121 27q-26 19 -40 40zM1098 288q75 0 75 -138v-18q0 -132 -75 -132h-20q-261 0 -351 182l-76 -5q-294 -18 -443 88q-125 91 -124 264q1 337 518 442
l-5 41l261 34l77 -582q24 -176 147 -176h16zM668 451l-33 255q-149 -31 -215 -73q-65 -43 -65 -87q0 -122 282 -98zM1780 0h-74q-144 0 -262 107q-118 -107 -272 -107h-78q-74 0 -74 132v18q0 138 74 138h41q173 0 173 188v789h273v-789q0 -188 162 -188h37q75 0 75 -138
v-18q0 -132 -75 -132zM1787 0q-74 0 -74 132v18q0 138 74 138h15q176 0 176 277v878h273v-893q0 -297 -128 -432q-111 -118 -300 -118h-36zM2484 1503h273v-1502h-273v1502z" />
    <glyph glyph-name="uniFE70" unicode="&#x20;&#x64b;" horiz-adv-x="674" arabic-form="isolated" 
d="M66 1090v148l555 227v-149zM66 1377v148l555 227v-148z" />
    <glyph glyph-name="uniFE72" unicode="&#x20;&#x64c;" horiz-adv-x="674" arabic-form="isolated" 
d="M499 1670q11 26 11 62t-22 54.5t-51 18.5q-64 0 -64 -65q0 -48 57 -71q20 -8 60 -20zM613 1629l86 -3v-119q-62 1 -73 2l-66 6q-46 -101 -140 -184q-95 -83 -172 -83t-128 40q-100 77 -103 314h96q2 -129 32 -182q31 -53 93 -53q63 1 137 73q44 42 74 101
q-128 27 -168 81q-35 47 -34 98q3 174 140 200q21 4 44 4q89 0 143 -53q88 -86 39 -242z" />
    <glyph glyph-name="uniFE74" unicode="&#x20;&#x64d;" horiz-adv-x="674" arabic-form="isolated" 
d="M72 -563v149l555 227v-149zM72 -275v148l555 227v-149z" />
    <glyph glyph-name="uniFE76" unicode="&#x20;&#x64e;" horiz-adv-x="674" arabic-form="isolated" 
d="M34 1376v148l555 227v-148z" />
    <glyph glyph-name="uniFE78" unicode="&#x20;&#x64f;" horiz-adv-x="674" arabic-form="isolated" 
d="M639 1522q-72 1 -146 9q-145 -197 -417 -209v119q146 6 224 71q33 27 58 53q-14 3 -17.5 4.5t-4.5 2.5q-145 63 -145 173.5t80 170.5q32 24 110 24t133 -53.5t55 -145.5q0 -37 -19 -97l89 -2v-120zM379 1820q-66 0 -66 -72q0 -41 57 -63q20 -9 59 -21l9 21q12 26 12 62.5
t-22 54.5t-49 18z" />
    <glyph glyph-name="uniFE7A" unicode="&#x20;&#x650;" horiz-adv-x="674" arabic-form="isolated" 
d="M83 -392v149l555 227v-149z" />
    <glyph glyph-name="uniFE7C" unicode="&#x20;&#x651;" horiz-adv-x="674" arabic-form="isolated" 
d="M371 1563q-10 -34 -26 -60q-26 -41 -67 -62q-20 -10 -43.5 -15.5t-49.5 -5.5q-55 0 -92 24.5t-55.5 71t-18.5 112.5q0 11 1 25t3 33q4 38 12 91l2 12h105l-2 -17q-13 -91 -13 -119q0 -57 17.5 -81.5t53.5 -24.5q26 0 45 8t33 25t21.5 43.5t8.5 62.5q0 7 0.5 14t0.5 14.5
v15.5q0 11 0.5 22.5t-0.5 24.5q0 7 0.5 13.5t0.5 12.5v11q0 14 -1 19v15h104l1 -14q0 -19 1 -40.5t1 -46.5q0 -70 28 -102t88 -32q21 0 35 10.5t21.5 35.5t7.5 66q1 107 -10 171l-4 18h111l2 -13q6 -42 8 -87q2 -23 2.5 -46.5t0.5 -48.5q0 -41 -5.5 -75t-17.5 -60
q-12 -27 -30.5 -46t-42.5 -30q-7 -3 -14.5 -5.5t-15 -4.5t-14.5 -3t-14.5 -2t-14.5 -1q-79 -4 -121 27q-26 19 -40 40z" />
    <glyph glyph-name="uniFE7E" unicode="&#x20;&#x652;" horiz-adv-x="674" arabic-form="isolated" 
d="M492 1528q0 12 -2 22.5t-6 20t-10 18.5t-14 17q-11 10 -23 17.5t-26 11t-30 3.5q-23 0 -43 -8q-10 -4 -18.5 -10t-16.5 -14q-16 -16 -24 -35q-3 -7 -4.5 -13.5t-2.5 -14t-1 -15.5q0 -24 8 -43.5t24 -35.5q31 -31 78 -31t79 32q16 16 24 35t8 43zM593 1528q0 -89 -61 -151
q-61 -61 -150 -61q-10 0 -19.5 0.5t-18.5 2t-18 3.5q-27 7 -50.5 21t-44.5 34q-15 16 -26 33q-3 3 -5 6.5t-4 7.5t-4 7.5t-3.5 7t-3.5 7.5q-3 8 -5.5 15.5t-4 15.5t-3 16.5t-2 17t-0.5 17.5q0 29 7 56t20.5 50.5t33.5 43.5q62 62 151 62q29 0 56 -7q13 -3 25.5 -8.5
t24.5 -12.5q24 -13 44 -34q10 -10 18.5 -21t15.5 -23q14 -23 21 -50q3 -13 4.5 -27t1.5 -29z" />
    <glyph glyph-name="uniFEF5" unicode="&#xfedf;&#xfe82;" horiz-adv-x="1292" arabic-form="isolated" 
d="M1175 786q0 -385 -198 -585t-580 -200q-114 0 -200 10l-45 4v286l57 -8q112 -15 235 -9q-122 518 -361 988l-21 41l231 142l25 -47q246 -458 388 -1068q104 56 155 181q42 105 42 347v636h272v-718zM242 1588q-78 13 -156 -82l-41 -51l-139 193l20 29q129 190 313 154
l118 -22q94 -18 171 38l46 34l110 -203l-27 -26q-118 -113 -305 -82z" />
    <glyph glyph-name="uniFEF6" unicode="&#xfee0;&#xfe82;" horiz-adv-x="1352" arabic-form="final" 
d="M242 1588q-78 13 -156 -82l-41 -51l-139 193l20 29q129 190 313 154l118 -22q94 -18 171 38l46 34l110 -203l-27 -26q-118 -113 -305 -82zM444 284q-124 522 -361 988l-21 41l231 141l25 -47q246 -458 388 -1068q104 56 155 182q42 105 42 347v634h272v-896
q0 -318 160 -318h37v-287h-45q-123 0 -212 50q-90 51 -136 149q-160 -199 -582 -199q-114 0 -200 10l-45 4v286l57 -8q112 -15 235 -9z" />
    <glyph glyph-name="uniFEF7" unicode="&#xfedf;&#xfe84;" horiz-adv-x="1292" arabic-form="isolated" 
d="M1175 786q0 -385 -198 -585t-580 -200q-114 0 -200 10l-45 4v286l57 -8q112 -15 235 -9q-122 518 -361 988l-21 41l231 142l25 -47q246 -458 388 -1068q104 56 155 181q42 105 42 347v636h272v-718zM20 1744q-41 57 -41 128q0 152 130 222q94 49 217 19q44 -11 97 -41
v-173l-36 16q-134 61 -207 18q-33 -19 -36 -54.5t19 -60t82 -42.5q38 -6 173 24l31 7v-176l-473 -106v173l67 16z" />
    <glyph glyph-name="uniFEF8" unicode="&#xfee0;&#xfe84;" horiz-adv-x="1352" arabic-form="final" 
d="M444 284q-124 522 -361 988l-21 41l231 141l25 -47q246 -458 388 -1068q104 56 155 182q42 105 42 347v634h272v-896q0 -318 160 -318h37v-287h-45q-123 0 -212 50q-90 51 -136 149q-160 -199 -582 -199q-114 0 -200 10l-45 4v286l57 -8q112 -15 235 -9zM-12 1746
q-41 57 -41 128q0 152 130 222q94 49 217 19q44 -11 97 -41v-173l-36 16q-134 61 -207 18q-33 -19 -36 -54.5t19 -60t82 -42.5q38 -6 173 24l31 7v-176l-473 -106v173l67 16z" />
    <glyph glyph-name="uniFEF9" unicode="&#xfedf;&#xfe88;" horiz-adv-x="1292" arabic-form="isolated" 
d="M1175 786q0 -385 -198 -585t-580 -200q-114 0 -200 10l-45 4v286l57 -8q112 -15 235 -9q-122 518 -361 988l-21 41l231 142l25 -47q246 -458 388 -1068q104 56 155 181q42 105 42 347v636h272v-718zM66 -429q-41 57 -41 128q0 152 130 222q94 49 217 19q44 -11 97 -41
v-173l-36 16q-134 61 -207 18q-33 -19 -36 -54.5t19 -60t82 -42.5q38 -6 173 24l31 7v-176l-473 -106v173l67 16z" />
    <glyph glyph-name="uniFEFA" unicode="&#xfee0;&#xfe88;" horiz-adv-x="1352" arabic-form="final" 
d="M444 284q-124 522 -361 988l-21 41l231 141l25 -47q246 -458 388 -1068q104 56 155 182q42 105 42 347v634h272v-896q0 -318 160 -318h37v-287h-45q-123 0 -212 50q-90 51 -136 149q-160 -199 -582 -199q-114 0 -200 10l-45 4v286l57 -8q112 -15 235 -9zM58 -423
q-41 57 -41 128q0 152 130 222q94 49 217 19q44 -11 97 -41v-173l-36 16q-134 61 -207 18q-33 -19 -36 -54.5t19 -60t82 -42.5q38 -6 173 24l31 7v-176l-473 -106v173l67 16z" />
    <glyph glyph-name="uniFEFB" unicode="&#xfedf;&#xfe8e;" horiz-adv-x="1292" arabic-form="isolated" 
d="M1175 786q0 -385 -198 -585t-580 -200q-114 0 -200 10l-45 4v286l57 -8q112 -15 235 -9q-122 518 -361 988l-21 41l231 142l25 -47q246 -458 388 -1068q104 56 155 181q42 105 42 347v636h272v-718z" />
    <glyph glyph-name="uniFEFC" unicode="&#xfee0;&#xfe8e;" horiz-adv-x="1352" arabic-form="final" 
d="M444 284q-124 522 -361 988l-21 41l231 141l25 -47q246 -458 388 -1068q104 56 155 182q42 105 42 347v634h272v-896q0 -318 160 -318h37v-287h-45q-123 0 -212 50q-90 51 -136 149q-160 -199 -582 -199q-114 0 -200 10l-45 4v286l57 -8q112 -15 235 -9z" />
    <glyph glyph-name="uni0651064B" unicode="&#x64b;&#x651;" 
d="M310 1242v148l555 227v-149zM310 1529v148l555 227v-148zM615 905q-10 -34 -26 -60q-26 -41 -67 -62q-20 -10 -43.5 -15.5t-49.5 -5.5q-55 0 -92 24.5t-55.5 71t-18.5 112.5q0 11 1 25t3 33q4 38 12 91l2 12h105l-2 -17q-13 -91 -13 -119q0 -57 17.5 -81.5t53.5 -24.5
q26 0 45 8t33 25t21.5 43.5t8.5 62.5q0 7 0.5 14t0.5 14.5v15.5q0 11 0.5 22.5t-0.5 24.5q0 7 0.5 13.5t0.5 12.5v11q0 14 -1 19v15h104l1 -14q0 -19 1 -40.5t1 -46.5q0 -70 28 -102t88 -32q21 0 35 10.5t21.5 35.5t7.5 66q1 107 -10 171l-4 18h111l2 -13q6 -42 8 -87
q2 -23 2.5 -46.5t0.5 -48.5q0 -41 -5.5 -75t-17.5 -60q-12 -27 -30.5 -46t-42.5 -30q-7 -3 -14.5 -5.5t-15 -4.5t-14.5 -3t-14.5 -2t-14.5 -1q-79 -4 -121 27q-26 19 -40 40z" />
    <glyph glyph-name="uni0651064C" unicode="&#x64c;&#x651;" 
d="M732 1682q11 26 11 62t-22 54.5t-51 18.5q-64 0 -64 -65q0 -48 57 -71q20 -8 60 -20zM846 1641l86 -3v-119q-62 1 -73 2l-66 6q-46 -101 -140 -184q-95 -83 -172 -83t-128 40q-100 77 -103 314h96q2 -129 32 -182q31 -53 93 -53q63 1 137 73q44 42 74 101
q-128 27 -168 81q-35 47 -34 98q3 174 140 200q21 4 44 4q89 0 143 -53q88 -86 39 -242zM604 909q-10 -34 -26 -60q-26 -41 -67 -62q-20 -10 -43.5 -15.5t-49.5 -5.5q-55 0 -92 24.5t-55.5 71t-18.5 112.5q0 11 1 25t3 33q4 38 12 91l2 12h105l-2 -17q-13 -91 -13 -119
q0 -57 17.5 -81.5t53.5 -24.5q26 0 45 8t33 25t21.5 43.5t8.5 62.5q0 7 0.5 14t0.5 14.5v15.5q0 11 0.5 22.5t-0.5 24.5q0 7 0.5 13.5t0.5 12.5v11q0 14 -1 19v15h104l1 -14q0 -19 1 -40.5t1 -46.5q0 -70 28 -102t88 -32q21 0 35 10.5t21.5 35.5t7.5 66q1 107 -10 171l-4 18
h111l2 -13q6 -42 8 -87q2 -23 2.5 -46.5t0.5 -48.5q0 -41 -5.5 -75t-17.5 -60q-12 -27 -30.5 -46t-42.5 -30q-7 -3 -14.5 -5.5t-15 -4.5t-14.5 -3t-14.5 -2t-14.5 -1q-79 -4 -121 27q-26 19 -40 40z" />
    <glyph glyph-name="uni064B0651" unicode="&#x64d;&#x651;" 
d="M568 1562q-10 -34 -26 -60q-26 -41 -67 -62q-20 -10 -43.5 -15.5t-49.5 -5.5q-55 0 -92 24.5t-55.5 71t-18.5 112.5q0 11 1 25t3 33q4 38 12 91l2 12h105l-2 -17q-13 -91 -13 -119q0 -57 17.5 -81.5t53.5 -24.5q26 0 45 8t33 25t21.5 43.5t8.5 62.5q0 7 0.5 14t0.5 14.5
v15.5q0 11 0.5 22.5t-0.5 24.5q0 7 0.5 13.5t0.5 12.5v11q0 14 -1 19v15h104l1 -14q0 -19 1 -40.5t1 -46.5q0 -70 28 -102t88 -32q21 0 35 10.5t21.5 35.5t7.5 66q1 107 -10 171l-4 18h111l2 -13q6 -42 8 -87q2 -23 2.5 -46.5t0.5 -48.5q0 -41 -5.5 -75t-17.5 -60
q-12 -27 -30.5 -46t-42.5 -30q-7 -3 -14.5 -5.5t-15 -4.5t-14.5 -3t-14.5 -2t-14.5 -1q-79 -4 -121 27q-26 19 -40 40zM263 755v148l555 227v-149zM263 1042v148l555 227v-148z" />
    <glyph glyph-name="uni0651064E" unicode="&#x64e;&#x651;" 
d="M284 1440v148l555 227v-148zM621 1091q-10 -34 -26 -60q-26 -41 -67 -62q-20 -10 -43.5 -15.5t-49.5 -5.5q-55 0 -92 24.5t-55.5 71t-18.5 112.5q0 11 1 25t3 33q4 38 12 91l2 12h105l-2 -17q-13 -91 -13 -119q0 -57 17.5 -81.5t53.5 -24.5q26 0 45 8t33 25t21.5 43.5
t8.5 62.5q0 7 0.5 14t0.5 14.5v15.5q0 11 0.5 22.5t-0.5 24.5q0 7 0.5 13.5t0.5 12.5v11q0 14 -1 19v15h104l1 -14q0 -19 1 -40.5t1 -46.5q0 -70 28 -102t88 -32q21 0 35 10.5t21.5 35.5t7.5 66q1 107 -10 171l-4 18h111l2 -13q6 -42 8 -87q2 -23 2.5 -46.5t0.5 -48.5
q0 -41 -5.5 -75t-17.5 -60q-12 -27 -30.5 -46t-42.5 -30q-7 -3 -14.5 -5.5t-15 -4.5t-14.5 -3t-14.5 -2t-14.5 -1q-79 -4 -121 27q-26 19 -40 40z" />
    <glyph glyph-name="uni0651064F" unicode="&#x64f;&#x651;" 
d="M873 1509q-72 1 -146 9q-145 -197 -417 -209v119q146 6 224 71q33 27 58 53q-14 3 -17.5 4.5t-4.5 2.5q-145 63 -145 173.5t80 170.5q32 24 110 24t133 -53.5t55 -145.5q0 -37 -19 -97l89 -2v-120zM613 1807q-66 0 -66 -72q0 -41 57 -63q20 -9 59 -21l9 21q12 26 12 62.5
t-22 54.5t-49 18zM605 940q-10 -34 -26 -60q-26 -41 -67 -62q-20 -10 -43.5 -15.5t-49.5 -5.5q-55 0 -92 24.5t-55.5 71t-18.5 112.5q0 11 1 25t3 33q4 38 12 91l2 12h105l-2 -17q-13 -91 -13 -119q0 -57 17.5 -81.5t53.5 -24.5q26 0 45 8t33 25t21.5 43.5t8.5 62.5
q0 7 0.5 14t0.5 14.5v15.5q0 11 0.5 22.5t-0.5 24.5q0 7 0.5 13.5t0.5 12.5v11q0 14 -1 19v15h104l1 -14q0 -19 1 -40.5t1 -46.5q0 -70 28 -102t88 -32q21 0 35 10.5t21.5 35.5t7.5 66q1 107 -10 171l-4 18h111l2 -13q6 -42 8 -87q2 -23 2.5 -46.5t0.5 -48.5q0 -41 -5.5 -75
t-17.5 -60q-12 -27 -30.5 -46t-42.5 -30q-7 -3 -14.5 -5.5t-15 -4.5t-14.5 -3t-14.5 -2t-14.5 -1q-79 -4 -121 27q-26 19 -40 40z" />
    <glyph glyph-name="uni064E0651" unicode="&#x650;&#x651;" 
d="M606 1508q-10 -34 -26 -60q-26 -41 -67 -62q-20 -10 -43.5 -15.5t-49.5 -5.5q-55 0 -92 24.5t-55.5 71t-18.5 112.5q0 11 1 25t3 33q4 38 12 91l2 12h105l-2 -17q-13 -91 -13 -119q0 -57 17.5 -81.5t53.5 -24.5q26 0 45 8t33 25t21.5 43.5t8.5 62.5q0 7 0.5 14t0.5 14.5
v15.5q0 11 0.5 22.5t-0.5 24.5q0 7 0.5 13.5t0.5 12.5v11q0 14 -1 19v15h104l1 -14q0 -19 1 -40.5t1 -46.5q0 -70 28 -102t88 -32q21 0 35 10.5t21.5 35.5t7.5 66q1 107 -10 171l-4 18h111l2 -13q6 -42 8 -87q2 -23 2.5 -46.5t0.5 -48.5q0 -41 -5.5 -75t-17.5 -60
q-12 -27 -30.5 -46t-42.5 -30q-7 -3 -14.5 -5.5t-15 -4.5t-14.5 -3t-14.5 -2t-14.5 -1q-79 -4 -121 27q-26 19 -40 40zM336 1010v148l555 227v-148z" />
    <glyph glyph-name="uni0654064E" unicode="&#x64e;&#x654;" 
d="M250 1508v148l555 227v-148zM406 1260q-41 57 -41 128q0 152 130 222q94 49 217 19q44 -11 97 -41v-173l-36 16q-134 61 -207 18q-33 -19 -36 -54.5t19 -60t82 -42.5q38 -6 173 24l31 7v-176l-473 -106v173l67 16z" />
    <glyph glyph-name="uni0654064F" unicode="&#x64f;&#x654;" 
d="M882 1535q-72 1 -146 9q-145 -197 -417 -209v119q146 6 224 71q33 27 58 53q-14 3 -17.5 4.5t-4.5 2.5q-145 63 -145 173.5t80 170.5q32 24 110 24t133 -53.5t55 -145.5q0 -37 -19 -97l89 -2v-120zM622 1833q-66 0 -66 -72q0 -41 57 -63q20 -9 59 -21l9 21q12 26 12 62.5
t-22 54.5t-49 18zM400 1056q-41 57 -41 128q0 152 130 222q94 49 217 19q44 -11 97 -41v-173l-36 16q-134 61 -207 18q-33 -19 -36 -54.5t19 -60t82 -42.5q38 -6 173 24l31 7v-176l-473 -106v173l67 16z" />
    <glyph glyph-name="uni066E.fina" unicode="&#x66e;" horiz-adv-x="1977" 
d="M1982 288q75 0 75 -138v-18q0 -132 -75 -132h-29q-227 0 -325 166q-183 -164 -714 -166q-531 -1 -718 236q-118 150 -118 367q0 138 40 250l15 43l247 -61l-10 -47q-21 -104 -20 -166q4 -252 275 -308q134 -27 323 -27q339 0 460 61q121 60 128 172l11 203h233l13 -212
q9 -149 67 -195q35 -28 101 -28h21z" />
    <glyph glyph-name="uni066F.fina" unicode="&#x66f;" horiz-adv-x="1506" 
d="M1511 288q75 0 75 -138v-18q0 -132 -75 -132l-98 1q-79 -505 -681 -505q-304 1 -473.5 167t-168.5 484q0 208 73 421l15 45l262 -74l-17 -50q-61 -178 -61 -358q0 -359 383 -359q192 0 285 57.5t117 171.5h-48q-279 1 -377 135q-69 96 -69 225q0 245 140 393
q98 105 243 105q224 0 324 -205q62 -127 68 -366h83zM952.5 313q30.5 -24 94 -24t113.5 1q-9 280 -131 279q-31 -1 -60 -30q-47 -51 -47 -150q0 -52 30.5 -76z" />
    <glyph glyph-name="uni06A1.init" unicode="&#x6a1;" horiz-adv-x="934" 
d="M-6 288h202q158 0 240 18q89 21 125 57q-51 -6 -97 -6q-216 -1 -318 119q-70 79 -76 205q-12 241 127 399q97 109 233 115q194 8 298 -133q104 -142 117 -407q2 -44 2 -85q-1 -320 -155 -449q-144 -121 -478 -121h-220q-74 0 -74 132v18q0 138 74 138zM349 664
q37 -54 229 -27q-20 269 -133 268q-53 -1 -82 -56t-29 -132q0 -33 15 -53z" />
    <glyph glyph-name="uni06A1.medi" unicode="&#x6a1;" horiz-adv-x="1083" 
d="M1088 288q75 0 75 -138v-18q0 -132 -75 -132h-86q-295 0 -450 99q-157 -99 -448 -99h-110q-74 0 -74 132v18q0 138 74 138h91q113 0 177 8q-111 123 -111 300q-1 178 141 284q113 85 267 85q156 0 264 -81q135 -101 135 -285t-114 -303q81 -8 165 -8h79zM456 654
q-37 -37 -37 -87.5t36 -92.5q64 -76 101 -76t86 62q46 58 46 108q0 45 -38 84q-40 39 -97.5 38.5t-96.5 -36.5z" />
    <glyph glyph-name="uni06A1.fina" unicode="&#x6a1;" horiz-adv-x="2081" 
d="M2086 288q75 -1 75 -138v-18q0 -132 -75 -132h-66q-285 0 -471 102q-173 -101 -518 -101l-105 -1q-543 -1 -730 236q-118 150 -118 367q0 138 40 250l15 43l247 -61l-10 -47q-21 -104 -20 -166q2 -129 72 -205t201 -102q133 -26 357 -26h63q76 0 216 9q-109 123 -110 299
t141 283q153 117 361 77q98 -19 170 -72q132 -100 134 -297q3 -168 -112 -290q95 -8 174 -9zM1456 655q-37 -37 -37 -88t35 -93q65 -75 102 -75t85 61q47 59 47 109q0 45 -38 84q-41 39 -98.5 38.5t-95.5 -36.5z" />
    <glyph glyph-name="uni06CA.fina" unicode="&#x6ca;" horiz-adv-x="953" 
d="M383 1258l74 -73q12 -13 18 -25q7 13 20 26l72 72q52 50 102 0l74 -73q50 -51 -2 -103l-73 -74q-50 -49 -97 -2l-75 75q-14 14 -20 28q-7 -14 -21 -27l-73 -74q-50 -49 -97 -2l-75 75q-53 54 -1 105l72 72q52 50 102 0zM958 288q75 0 75 -138v-18q0 -132 -75 -132l-105 1
q-28 -120 -73 -190q-178 -276 -636 -320l-46 -4l-49 270l55 4q358 29 469 240q-305 1 -403 135q-69 96 -69 225q0 245 140 393q98 105 235 105q234 0 332 -205q62 -129 68 -366h82zM400.5 313q30.5 -24 94 -24t114.5 1q-9 280 -132 279q-31 -1 -60 -30q-47 -51 -47 -150
q0 -52 30.5 -76z" />
    <glyph glyph-name="uni06D5.fina" unicode="&#x6d5;" horiz-adv-x="1093" 
d="M1098 288q75 0 75 -138v-18q0 -132 -75 -132h-20q-261 0 -351 182l-76 -5q-294 -18 -443 88q-125 91 -124 264q1 337 518 442l-5 41l261 34l77 -582q24 -176 147 -176h16zM668 451l-33 255q-149 -31 -215 -73q-65 -43 -65 -87q0 -122 282 -98z" />
    <glyph glyph-name="uniFB56" unicode="&#x67e;" horiz-adv-x="1925" arabic-form="isolated" 
d="M350 622q3 -252 275 -308q134 -27 349 -26.5t338 29.5q253 61 251 307q0 72 -33 223l260 55q51 -143 51 -294q0 -434 -420 -553q-192 -55 -476 -55q-563 0 -749 236q-118 150 -118 367q0 138 54 290l249 -45q-32 -135 -31 -226zM871.583 -447.608
q-53.498 -53.498 -109.135 0l-77.0361 77.0361q-55.6377 54.5664 1.07031 112.344l80.2451 80.2461q50.2881 50.2871 103.785 -2.13965l78.1064 -79.1758q14.9785 -13.9092 22.4688 -28.8887q6.41992 14.9795 21.3984 29.958l80.2461 80.2461
q50.2871 50.2871 103.785 -2.13965l78.1055 -79.1758q55.6377 -55.6377 2.14062 -110.205l-79.1768 -78.1055q-53.4971 -53.498 -109.134 0l-77.0361 77.0361q-13.9092 13.9092 -21.3994 27.8184q-6.41992 -12.8398 -19.2588 -26.749zM1024.58 -714.025
q-53.4971 -53.4971 -109.135 0l-77.0361 77.0361q-55.6367 54.5674 1.07031 112.345l80.2461 80.2461q50.2871 50.2871 103.784 -2.14062l78.1064 -79.1758q55.6367 -55.6367 2.13965 -110.204z" />
    <glyph glyph-name="uniFB57" unicode="&#x67e;" horiz-adv-x="1977" arabic-form="final" 
d="M788.583 -448.608q-53.498 -53.498 -109.135 0l-77.0361 77.0361q-55.6377 54.5664 1.07031 112.344l80.2451 80.2461q50.2881 50.2871 103.785 -2.13965l78.1064 -79.1758q14.9785 -13.9092 22.4688 -28.8887q6.41992 14.9795 21.3984 29.958l80.2461 80.2461
q50.2871 50.2871 103.785 -2.13965l78.1055 -79.1758q55.6377 -55.6377 2.14062 -110.205l-79.1768 -78.1055q-53.4971 -53.498 -109.134 0l-77.0361 77.0361q-13.9092 13.9092 -21.3994 27.8184q-6.41992 -12.8398 -19.2588 -26.749zM941.585 -715.025
q-53.4971 -53.4971 -109.135 0l-77.0361 77.0361q-55.6367 54.5674 1.07031 112.345l80.2461 80.2461q50.2871 50.2871 103.784 -2.14062l78.1064 -79.1758q55.6367 -55.6367 2.13965 -110.204zM1982 288q75 0 75 -138v-18q0 -132 -75 -132h-29q-227 0 -325 166
q-183 -164 -714 -166q-531 -1 -718 236q-118 150 -118 367q0 138 40 250l15 43l247 -61l-10 -47q-21 -104 -20 -166q4 -252 275 -308q134 -27 323 -27q339 0 460 61q121 60 128 172l11 203h233l13 -212q9 -149 67 -195q35 -28 101 -28h21z" />
    <glyph glyph-name="uniFB58" unicode="&#x67e;" horiz-adv-x="699" arabic-form="initial" 
d="M-6 0q-74 0 -74 132v18q0 138 74 138h119q132 0 180 54q44 49 43 172q-1 151 -49 315l272 52q51 -196 50 -353q0 -308 -161 -435q-117 -93 -345 -93h-109zM176.583 -449.608q-53.498 -53.498 -109.135 0l-77.0361 77.0361q-55.6377 54.5664 1.07031 112.344
l80.2451 80.2461q50.2881 50.2871 103.785 -2.13965l78.1064 -79.1758q14.9785 -13.9092 22.4688 -28.8887q6.41992 14.9795 21.3984 29.958l80.2461 80.2461q50.2871 50.2871 103.785 -2.13965l78.1055 -79.1758q55.6377 -55.6377 2.14062 -110.205l-79.1768 -78.1055
q-53.4971 -53.498 -109.134 0l-77.0361 77.0361q-13.9092 13.9092 -21.3994 27.8184q-6.41992 -12.8398 -19.2588 -26.749zM329.585 -716.025q-53.4971 -53.4971 -109.135 0l-77.0361 77.0361q-55.6367 54.5674 1.07031 112.345l80.2461 80.2461
q50.2871 50.2871 103.784 -2.14062l78.1064 -79.1758q55.6367 -55.6367 2.13965 -110.204z" />
    <glyph glyph-name="uniFB59" unicode="&#x67e;" horiz-adv-x="749" arabic-form="medial" 
d="M754 288q75 0 75 -138v-18q0 -132 -75 -132h-22q-171 0 -292 108q-125 -108 -335 -108h-111q-74 0 -74 132v18q0 138 74 138h107q195 0 211 198l19 231h220l20 -231q17 -198 167 -198h16zM215.583 -448.608q-53.498 -53.498 -109.135 0l-77.0361 77.0361
q-55.6377 54.5664 1.07031 112.344l80.2451 80.2461q50.2881 50.2871 103.785 -2.13965l78.1064 -79.1758q14.9785 -13.9092 22.4688 -28.8887q6.41992 14.9795 21.3984 29.958l80.2461 80.2461q50.2871 50.2871 103.785 -2.13965l78.1055 -79.1758
q55.6377 -55.6377 2.14062 -110.205l-79.1768 -78.1055q-53.4971 -53.498 -109.134 0l-77.0361 77.0361q-13.9092 13.9092 -21.3994 27.8184q-6.41992 -12.8398 -19.2588 -26.749zM368.585 -715.025q-53.4971 -53.4971 -109.135 0l-77.0361 77.0361
q-55.6367 54.5674 1.07031 112.345l80.2461 80.2461q50.2871 50.2871 103.784 -2.14062l78.1064 -79.1758q55.6367 -55.6367 2.13965 -110.204z" />
    <glyph glyph-name="uniFB7A" unicode="&#x686;" horiz-adv-x="1405" arabic-form="isolated" 
d="M729.707 17.4365q-48.0684 -46.8789 -98.0596 0l-69.2178 67.5039q-49.9912 47.8154 0.960938 98.4443l72.1025 70.3164q45.1846 44.0654 93.2529 -1.875l70.1787 -69.3789q13.46 -12.1885 20.1895 -25.3145q5.76758 13.126 19.2266 26.252l72.1025 70.3164
q45.1846 44.0654 93.2529 -1.875l70.1797 -69.3789q49.9902 -48.7539 1.92188 -96.5693l-71.1406 -68.4414q-48.0684 -46.8789 -98.0596 0l-69.2178 67.5039q-12.498 12.1885 -19.2275 24.377q-5.76758 -11.251 -17.3047 -23.4395zM867.182 -216.017
q-48.0674 -46.8779 -98.0586 0l-69.2188 67.5049q-49.9902 47.8154 0.961914 98.4434l72.1025 70.3174q45.1836 44.0654 93.252 -1.875l70.1797 -69.3799q49.9912 -48.7529 1.92285 -96.5684zM1320 768l-11 -286l-50 2q-127 5 -275 -18q-149 -23 -237 -50
q-172 -54 -270 -150q-122 -118 -122 -285q1 -321 495 -321q199 1 412 71l69 -254q-220 -87 -484 -87q-374 2 -571 153q-197 152 -196 443q1 289 234 497q140 125 426 194q-167 63 -268 47q-109 -18 -221 -141l-30 -34l-207 151l52 69q181 243 452 240q116 -1 372 -114
q252 -112 382 -123z" />
    <glyph glyph-name="uniFB7B" unicode="&#x686;" horiz-adv-x="1422" arabic-form="final" 
d="M621.387 -19.3838q-43.207 -42.1387 -88.1416 0l-62.2178 60.6797q-44.9355 42.9814 0.863281 88.4912l64.8105 63.208q40.6143 39.6104 83.8213 -1.68555l63.082 -62.3652q12.0977 -10.9561 18.1465 -22.7549q5.18457 11.7988 17.2832 23.5977l64.8096 63.208
q40.6152 39.6104 83.8213 -1.68555l63.082 -62.3652q44.9355 -43.8242 1.72852 -86.8057l-63.9463 -61.5225q-43.207 -42.1387 -88.1416 0l-62.2178 60.6797q-11.2344 10.9561 -17.2832 21.9121q-5.18457 -10.1133 -15.5537 -21.0693zM744.958 -229.234
q-43.207 -42.1387 -88.1416 0l-62.2178 60.6797q-44.9355 42.9814 0.864258 88.4912l64.8096 63.208q40.6143 39.6104 83.8213 -1.68555l63.082 -62.3652q44.9355 -43.8242 1.72852 -86.8057zM744 675q-171 65 -272 49q-109 -18 -221 -141l-30 -34l-207 151l52 69
q181 243 452 240q119 -1 372 -114q252 -112 382 -123l48 -4l-11 -282q-25 4 -138 -3q10 -102 66 -149q55 -46 170 -46h36v-287h-25q-231 0 -360.5 116.5t-142.5 337.5q-299 -51 -439 -189q-121 -117 -121 -285q1 -321 495 -321q199 1 412 71l69 -254q-220 -87 -484 -87
q-364 2 -566 153.5t-201 437t225 489.5q154 139 439 205z" />
    <glyph glyph-name="uniFB7C" unicode="&#x686;" horiz-adv-x="1437" arabic-form="initial" 
d="M-6 288h113q461 0 815 257q-273 113 -402 111q-117 -2 -245 -144l-31 -34l-208 152l56 70q193 236 408 238q189 1 393 -85q363 -151 421 -156l50 -4l-23 -263l-48 3q-25 2 -92 -36q-70 -37 -141 -85q-156 -103 -284 -164q-315 -148 -690 -148h-92q-74 0 -74 132v18
q0 138 74 138zM610.583 -451.608q-53.498 -53.498 -109.135 0l-77.0361 77.0361q-55.6377 54.5664 1.07031 112.344l80.2451 80.2461q50.2881 50.2871 103.785 -2.13965l78.1064 -79.1758q14.9785 -13.9092 22.4688 -28.8887q6.41992 14.9795 21.3984 29.958
l80.2461 80.2461q50.2871 50.2871 103.785 -2.13965l78.1055 -79.1758q55.6377 -55.6377 2.14062 -110.205l-79.1768 -78.1055q-53.4971 -53.498 -109.134 0l-77.0361 77.0361q-13.9092 13.9092 -21.3994 27.8184q-6.41992 -12.8398 -19.2588 -26.749zM763.585 -718.025
q-53.4971 -53.4971 -109.135 0l-77.0361 77.0361q-55.6367 54.5674 1.07031 112.345l80.2461 80.2461q50.2871 50.2871 103.784 -2.14062l78.1064 -79.1758q55.6367 -55.6367 2.13965 -110.204z" />
    <glyph glyph-name="uniFB7D" unicode="&#x686;" horiz-adv-x="1495" arabic-form="medial" 
d="M-6 288h113q461 0 815 257q-271 113 -402 111q-117 -2 -245 -144l-31 -34l-208 152l56 70q193 236 408 238q189 1 393 -85q356 -150 421 -156l50 -4l-23 -261h-26q-52 0 -116 -38q29 -103 270 -106h31q75 -1 75 -138v-18q0 -132 -75 -132h-35q-408 0 -482 261
q-104 -64 -206 -113q-311 -148 -691 -148h-92q-74 0 -74 132v18q0 138 74 138zM558.583 -448.608q-53.498 -53.498 -109.135 0l-77.0361 77.0361q-55.6377 54.5664 1.07031 112.344l80.2451 80.2461q50.2881 50.2871 103.785 -2.13965l78.1064 -79.1758
q14.9785 -13.9092 22.4688 -28.8887q6.41992 14.9795 21.3984 29.958l80.2461 80.2461q50.2871 50.2871 103.785 -2.13965l78.1055 -79.1758q55.6377 -55.6377 2.14062 -110.205l-79.1768 -78.1055q-53.4971 -53.498 -109.134 0l-77.0361 77.0361
q-13.9092 13.9092 -21.3994 27.8184q-6.41992 -12.8398 -19.2588 -26.749zM711.585 -715.025q-53.4971 -53.4971 -109.135 0l-77.0361 77.0361q-55.6367 54.5674 1.07031 112.345l80.2461 80.2461q50.2871 50.2871 103.784 -2.14062l78.1064 -79.1758
q55.6367 -55.6367 2.13965 -110.204z" />
    <glyph glyph-name="uniFB8A" unicode="&#x698;" horiz-adv-x="895" arabic-form="isolated" 
d="M420 575l251 124l24 -41q130 -232 128 -485q-1 -217 -104 -369q-183 -271 -637 -311l-45 -4l-48 268l54 5q335 29 464 212q50 70 48 197q-3 178 -108 358zM388.583 1124.85l79.1758 -78.1064q11.7695 -12.8389 18.1885 -25.6787q8.56055 12.8398 22.4697 26.749
l77.0361 77.0361q54.5664 54.5674 109.134 0l79.1768 -78.1064q53.4971 -54.5674 -2.14062 -110.204l-78.1055 -79.1758q-50.2881 -49.2178 -103.785 -2.14062l-90.9453 80.2461q-10.6992 9.62988 -17.1191 19.2588q-6.41992 -8.55957 -16.0488 -18.1885l-78.1064 -79.1758
q-53.4971 -52.4277 -103.785 -2.14062l-80.2451 80.2461q-56.708 57.7773 -1.07031 112.345l77.0361 77.0361q55.6367 53.4971 109.135 0zM541.585 1391.27l79.1758 -78.1055q53.4971 -54.5674 -2.13965 -110.205l-78.1064 -79.1758q-50.2871 -49.2178 -103.784 -2.13965
l-90.9453 80.2461q-54.5674 48.1475 9.62891 112.344l77.0361 77.0361q54.5674 54.5674 109.135 0z" />
    <glyph glyph-name="uniFB8B" unicode="&#x698;" horiz-adv-x="942" arabic-form="final" 
d="M947 288q75 0 75 -138v-18q0 -132 -75 -132h-14q-75 0 -121 20q-26 -111 -95 -215q-181 -272 -635 -312l-45 -4l-48 268l54 5q326 28 464 222q69 97 40 276q-22 136 -100 269l-27 46l257 127l109 -271q58 -143 146 -143h15zM395.583 1126.85l79.1758 -78.1064
q11.7695 -12.8389 18.1885 -25.6787q8.56055 12.8398 22.4697 26.749l77.0361 77.0361q54.5664 54.5674 109.134 0l79.1768 -78.1064q53.4971 -54.5674 -2.14062 -110.204l-78.1055 -79.1758q-50.2881 -49.2178 -103.785 -2.14062l-90.9453 80.2461
q-10.6992 9.62988 -17.1191 19.2588q-6.41992 -8.55957 -16.0488 -18.1885l-78.1064 -79.1758q-53.4971 -52.4277 -103.785 -2.14062l-80.2451 80.2461q-56.708 57.7773 -1.07031 112.345l77.0361 77.0361q55.6367 53.4971 109.135 0zM548.585 1393.27l79.1758 -78.1055
q53.4971 -54.5674 -2.13965 -110.205l-78.1064 -79.1758q-50.2871 -49.2178 -103.784 -2.13965l-90.9453 80.2461q-54.5674 48.1475 9.62891 112.344l77.0361 77.0361q54.5674 54.5674 109.135 0z" />
    <glyph glyph-name="uniFB8E" unicode="&#x6a9;" horiz-adv-x="1917" arabic-form="isolated" 
d="M1218 1075q296 -218 371 -299q157 -169 171 -319t-50 -253q-127 -204 -433 -204h-351q-543 -1 -730 236q-118 150 -118 367q0 138 40 250l15 43l247 -61l-10 -47q-42 -206 15.5 -321t254.5 -156q119 -24 308 -24h281q279 -1 270 114q-6 75 -136 200q-119 116 -342 256
q-110 71 -110 220q-1 91 45 145q48 55 112 79l789 304v-290z" />
    <glyph glyph-name="uniFB8F" unicode="&#x6a9;" horiz-adv-x="1980" arabic-form="final" 
d="M1985 0h-26q-202 0 -308 128q-138 -127 -375 -127l-350 -1q-543 -1 -730 236q-118 150 -118 367q0 138 40 250l15 43l247 -61l-10 -47q-43 -211 15 -321q68 -125 255 -156q153 -24 308 -24l280 1q251 1 268 86q17 86 -134 233q-119 115 -341 251q-110 67 -110 221
q0 90 45.5 144t110.5 79l789 303v-290l-639 -239q235 -173 314 -247q195 -181 245 -389q19 -82 61 -117q44 -35 115 -35h33q75 0 75 -138v-18q0 -132 -75 -132z" />
    <glyph glyph-name="uniFB90" unicode="&#x6a9;" horiz-adv-x="1001" arabic-form="initial" 
d="M-6 0q-74 0 -74 132v18q0 138 74 138h319q203 0 254 55q53 57 -56 191q-114 141 -406 323q-110 69 -110 200q0 111 49 167q47 54 108 77l789 304v-290l-639 -240q294 -215 366 -293q141 -153 172 -304.5t-57 -289.5q-120 -188 -422 -188h-367z" />
    <glyph glyph-name="uniFB91" unicode="&#x6a9;" horiz-adv-x="1054" arabic-form="medial" 
d="M1059 288q75 0 75 -138v-18q0 -132 -75 -132h-24q-193 0 -299 128q-137 -128 -375 -128h-367q-74 0 -74 132v18q0 138 74 138h319q202 0 250 51q25 27 17 73q-14 76 -134 191q-114 111 -341 254q-107 68 -109 203q-2 181 156 241l789 304v-290l-639 -240
q224 -165 297 -233q200 -185 260 -401q23 -81 66 -118q41 -35 112 -35h22z" />
    <glyph glyph-name="uniFB92" unicode="&#x6af;" horiz-adv-x="1917" arabic-form="isolated" 
d="M1218 1075q296 -218 371 -299q157 -169 171 -319t-50 -253q-127 -204 -433 -204h-351q-543 -1 -730 236q-118 150 -118 367q0 138 40 250l15 43l247 -61l-10 -47q-42 -206 15.5 -321t254.5 -156q119 -24 308 -24h281q279 -1 270 114q-6 75 -136 200q-119 116 -342 256
q-110 71 -110 220q-1 91 45 145q48 55 112 79l789 304v-290zM1845.39 1714.62l-801.39 -302.795v154.072l801.39 303.865v-155.143z" />
    <glyph glyph-name="uniFB93" unicode="&#x6af;" horiz-adv-x="1980" arabic-form="final" 
d="M1848.39 1716.62l-801.39 -302.795v154.072l801.39 303.865v-155.143zM1985 0h-26q-202 0 -308 128q-138 -127 -375 -127l-350 -1q-543 -1 -730 236q-118 150 -118 367q0 138 40 250l15 43l247 -61l-10 -47q-43 -211 15 -321q68 -125 255 -156q153 -24 308 -24l280 1
q251 1 268 86q17 86 -134 233q-119 115 -341 251q-110 67 -110 221q0 90 45.5 144t110.5 79l789 303v-290l-639 -239q235 -173 314 -247q195 -181 245 -389q19 -82 61 -117q44 -35 115 -35h33q75 0 75 -138v-18q0 -132 -75 -132z" />
    <glyph glyph-name="uniFB94" unicode="&#x6af;" horiz-adv-x="1001" arabic-form="initial" 
d="M938.39 1716.62l-801.39 -302.795v154.072l801.39 303.865v-155.143zM-6 0q-74 0 -74 132v18q0 138 74 138h319q203 0 254 55q53 57 -56 191q-114 141 -406 323q-110 69 -110 200q0 111 49 167q47 54 108 77l789 304v-290l-639 -240q294 -215 366 -293
q141 -153 172 -304.5t-57 -289.5q-120 -188 -422 -188h-367z" />
    <glyph glyph-name="uniFB95" unicode="&#x6af;" horiz-adv-x="1054" arabic-form="medial" 
d="M1059 288q75 0 75 -138v-18q0 -132 -75 -132h-24q-193 0 -299 128q-137 -128 -375 -128h-367q-74 0 -74 132v18q0 138 74 138h319q202 0 250 51q25 27 17 73q-14 76 -134 191q-114 111 -341 254q-107 68 -109 203q-2 181 156 241l789 304v-290l-639 -240
q224 -165 297 -233q200 -185 260 -401q23 -81 66 -118q41 -35 112 -35h22zM934.39 1716.62l-801.39 -302.795v154.072l801.39 303.865v-155.143z" />
    <glyph glyph-name="uniFB9E" unicode="&#x6ba;" horiz-adv-x="1506" arabic-form="isolated" 
d="M1423 287q-1 -155 -76 -308.5t-228.5 -236t-370.5 -82.5q-319 1 -500.5 162.5t-172.5 460.5q6 253 121 457l20 35l257 -75l-28 -54q-96 -185 -94 -371q1 -166 102.5 -253.5t303.5 -87t296 90.5q184 176 1 689l-17 48l259 88l18 -43q109 -261 109 -520z" />
    <glyph glyph-name="uniFB9F" unicode="&#x6ba;" horiz-adv-x="1560" arabic-form="final" 
d="M1565 288q75 0 75 -138v-18q0 -132 -75 -132h-21q-63 0 -133 26q-30 -240 -200 -384q-173 -147 -478 -146q-304 1 -485 163q-182 161 -173 460q6 252 121 457l20 35l257 -75l-28 -54q-96 -185 -95 -361q3 -351 403 -350q206 0 300 90q184 175 1 689l-16 48l257 90
l96 -295q34 -105 158 -105h16z" />
    <glyph glyph-name="uniFBA5.fina" unicode="&#x6c0;" horiz-adv-x="1093" arabic-form="final" 
d="M442 1327q-41 57 -41 128q0 152 130 222q94 49 217 19q44 -11 97 -41v-173l-36 16q-134 61 -207 18q-33 -19 -36 -54.5t19 -60t82 -42.5q38 -6 173 24l31 7v-176l-473 -106v173l67 16zM1098 288q75 0 75 -138v-18q0 -132 -75 -132h-20q-261 0 -351 182l-76 -5
q-294 -18 -443 88q-125 91 -124 264q1 337 518 442l-5 41l261 34l77 -582q24 -176 147 -176h16zM668 451l-33 255q-149 -31 -215 -73q-65 -43 -65 -87q0 -122 282 -98z" />
    <glyph glyph-name="uniFBAC" unicode="&#x6be;" horiz-adv-x="1369" arabic-form="initial" 
d="M-7 288h163q-60 93 -58.5 235.5t105.5 265t268 127.5q-12 5 -23 10l-51 22l140 246q188 -99 427 -276t304 -365q35 -100 19 -219q-27 -197 -190 -277q-227 -113 -605 1q-148 -58 -473 -58h-26q-74 0 -74 132v18q0 138 74 138zM488 334q134 51 153 185q9 65 -28 105.5
t-91 41.5q-89 2 -134 -71q-34 -54 -30 -119q3 -58 39 -96q29 -30 91 -46zM859 659q65 -223 -90 -391q46 -5 96 -6q142 -1 159 125q14 105 -79 199q-41 39 -86 73z" />
    <glyph glyph-name="uniFBAD" unicode="&#x6be;" horiz-adv-x="1045" arabic-form="medial" 
d="M1064 288q75 0 75 -138v-18q0 -132 -75 -132h-34q-114 0 -188 -102q-66 -90 -69 -314v-26l-166 -120l-26 13q-346 160 -427 549h-160q-74 0 -74 132v18q0 138 74 138h141q33 656 428 655q113 0 193 -57q134 -95 133 -316q-1 -286 -214 -455q-111 -89 -262 -110
q38 -126 130 -204q208 487 480 487h41zM394 288q91 5 153 60q86 76 87 209q0 110 -69 111q-144 2 -171 -380z" />
    <glyph glyph-name="uniFBE8" unicode="&#x649;" horiz-adv-x="694" arabic-form="initial" 
d="M-6 0q-74 0 -74 132v18q0 138 74 138h119q132 0 180 54q44 49 43 172q-1 151 -49 315l272 52q51 -196 50 -353q0 -308 -161 -435q-117 -93 -345 -93h-109z" />
    <glyph glyph-name="uniFBE9" unicode="&#x649;" horiz-adv-x="749" arabic-form="medial" 
d="M754 288q75 0 75 -138v-18q0 -132 -75 -132h-22q-171 0 -292 108q-125 -108 -335 -108h-111q-74 0 -74 132v18q0 138 74 138h107q195 0 211 198l19 231h220l20 -231q17 -198 167 -198h16z" />
    <glyph glyph-name="uniFBFC" unicode="&#x6cc;" horiz-adv-x="1527" arabic-form="isolated" 
d="M733 -169q272 0 395 133q47 51 47 104q0 19 -30 21q-204 11 -272 39q-67 29 -99 97t-22 160q32 308 255 429q141 78 349 53l48 -6l-21 -279h-68q-189 0 -254 -93q-31 -46 -39 -117q36 -5 101 -9q150 -9 236 -74t87 -184q0 -215 -178 -382q-179 -168 -540 -167
q-299 1 -480 163q-182 161 -173 460q6 252 121 457l20 35l257 -75l-28 -54q-96 -185 -94.5 -361t101.5 -263q101 -88 281 -87z" />
    <glyph glyph-name="uniFBFD" unicode="&#x6cc;" horiz-adv-x="1502" arabic-form="final" 
d="M1507 288q75 0 75 -138v-18q0 -132 -75 -132h-61q14 -37 14 -82q-1 -106 -82 -199q-221 -255 -643 -254q-299 1 -480 163q-182 161 -173 460q5 188 92 363l18 37l257 -74l-25 -53q-88 -193 -60 -361q19 -106 90 -168q104 -89 295.5 -92.5t342.5 81.5q110 63 110 127
q0 20 -45 53h-211q-100 11 -130 162q-21 103 53 123l6 1z" />
    <glyph glyph-name="uniFBFE" unicode="&#x6cc;" horiz-adv-x="694" arabic-form="initial" 
d="M-6 0q-74 0 -74 132v18q0 138 74 138h119q132 0 180 54q44 49 43 172q-1 151 -49 315l272 52q51 -196 50 -353q0 -308 -161 -435q-117 -93 -345 -93h-109zM181.583 -191.031l79.1758 -78.1064q12.8389 -13.9092 19.2588 -26.749q7.49023 13.9102 21.3994 27.8193
l77.0361 77.0361q55.6367 53.4971 109.134 0l79.1768 -78.1064q53.4971 -54.5674 -2.14062 -110.204l-78.1055 -79.1758q-53.498 -52.4277 -103.785 -2.14062l-80.2461 80.2461q-14.9785 14.9795 -21.3984 29.959q-7.49023 -14.9795 -22.4688 -28.8887l-78.1064 -79.1758
q-53.4971 -52.4277 -103.785 -2.14062l-80.2451 80.2461q-56.708 57.7773 -1.07031 112.345l77.0361 77.0361q55.6367 53.4971 109.135 0z" />
    <glyph glyph-name="uniFBFF" unicode="&#x6cc;" horiz-adv-x="749" arabic-form="medial" 
d="M754 288q75 0 75 -138v-18q0 -132 -75 -132h-22q-171 0 -292 108q-125 -108 -335 -108h-111q-74 0 -74 132v18q0 138 74 138h107q195 0 211 198l19 231h220l20 -231q17 -198 167 -198h16zM218.583 -192.031l79.1758 -78.1064q12.8389 -13.9092 19.2588 -26.749
q7.49023 13.9102 21.3994 27.8193l77.0361 77.0361q55.6367 53.4971 109.134 0l79.1768 -78.1064q53.4971 -54.5674 -2.14062 -110.204l-78.1055 -79.1758q-53.498 -52.4277 -103.785 -2.14062l-80.2461 80.2461q-14.9785 14.9795 -21.3984 29.959
q-7.49023 -14.9795 -22.4688 -28.8887l-78.1064 -79.1758q-53.4971 -52.4277 -103.785 -2.14062l-80.2451 80.2461q-56.708 57.7773 -1.07031 112.345l77.0361 77.0361q55.6367 53.4971 109.135 0z" />
    <glyph glyph-name="uniFE71" unicode="&#xfe71;" horiz-adv-x="674" arabic-form="medial" 
d="M-6 0q-74 0 -74 132v18q0 138 74 138h256q75 0 75 -138v-18q0 -132 -75 -132h-256zM66 1090v148l555 227v-149zM66 1377v148l555 227v-148z" />
    <glyph glyph-name="uniFE77" unicode="&#xfe77;" horiz-adv-x="674" arabic-form="medial" 
d="M34 1376v148l555 227v-148zM-6 0q-74 0 -74 132v18q0 138 74 138h256q75 0 75 -138v-18q0 -132 -75 -132h-256z" />
    <glyph glyph-name="uniFE79" unicode="&#xfe79;" horiz-adv-x="674" arabic-form="medial" 
d="M639 1522q-72 1 -146 9q-145 -197 -417 -209v119q146 6 224 71q33 27 58 53q-14 3 -17.5 4.5t-4.5 2.5q-145 63 -145 173.5t80 170.5q32 24 110 24t133 -53.5t55 -145.5q0 -37 -19 -97l89 -2v-120zM379 1820q-66 0 -66 -72q0 -41 57 -63q20 -9 59 -21l9 21q12 26 12 62.5
t-22 54.5t-49 18zM-6 0q-74 0 -74 132v18q0 138 74 138h256q75 0 75 -138v-18q0 -132 -75 -132h-256z" />
    <glyph glyph-name="uniFE7B" unicode="&#xfe7b;" horiz-adv-x="674" arabic-form="medial" 
d="M83 -392v149l555 227v-149zM-6 0q-74 0 -74 132v18q0 138 74 138h256q75 0 75 -138v-18q0 -132 -75 -132h-256z" />
    <glyph glyph-name="uniFE7D" unicode="&#xfe7d;" horiz-adv-x="674" arabic-form="medial" 
d="M371 1563q-10 -34 -26 -60q-26 -41 -67 -62q-20 -10 -43.5 -15.5t-49.5 -5.5q-55 0 -92 24.5t-55.5 71t-18.5 112.5q0 11 1 25t3 33q4 38 12 91l2 12h105l-2 -17q-13 -91 -13 -119q0 -57 17.5 -81.5t53.5 -24.5q26 0 45 8t33 25t21.5 43.5t8.5 62.5q0 7 0.5 14t0.5 14.5
v15.5q0 11 0.5 22.5t-0.5 24.5q0 7 0.5 13.5t0.5 12.5v11q0 14 -1 19v15h104l1 -14q0 -19 1 -40.5t1 -46.5q0 -70 28 -102t88 -32q21 0 35 10.5t21.5 35.5t7.5 66q1 107 -10 171l-4 18h111l2 -13q6 -42 8 -87q2 -23 2.5 -46.5t0.5 -48.5q0 -41 -5.5 -75t-17.5 -60
q-12 -27 -30.5 -46t-42.5 -30q-7 -3 -14.5 -5.5t-15 -4.5t-14.5 -3t-14.5 -2t-14.5 -1q-79 -4 -121 27q-26 19 -40 40zM-6 0q-74 0 -74 132v18q0 138 74 138h256q75 0 75 -138v-18q0 -132 -75 -132h-256z" />
    <glyph glyph-name="uniFE7F" unicode="&#xfe7f;" horiz-adv-x="674" arabic-form="medial" 
d="M-6 0q-74 0 -74 132v18q0 138 74 138h256q75 0 75 -138v-18q0 -132 -75 -132h-256zM492 1528q0 12 -2 22.5t-6 20t-10 18.5t-14 17q-11 10 -23 17.5t-26 11t-30 3.5q-23 0 -43 -8q-10 -4 -18.5 -10t-16.5 -14q-16 -16 -24 -35q-3 -7 -4.5 -13.5t-2.5 -14t-1 -15.5
q0 -24 8 -43.5t24 -35.5q31 -31 78 -31t79 32q16 16 24 35t8 43zM593 1528q0 -89 -61 -151q-61 -61 -150 -61q-10 0 -19.5 0.5t-18.5 2t-18 3.5q-27 7 -50.5 21t-44.5 34q-15 16 -26 33q-3 3 -5 6.5t-4 7.5t-4 7.5t-3.5 7t-3.5 7.5q-3 8 -5.5 15.5t-4 15.5t-3 16.5t-2 17
t-0.5 17.5q0 29 7 56t20.5 50.5t33.5 43.5q62 62 151 62q29 0 56 -7q13 -3 25.5 -8.5t24.5 -12.5q24 -13 44 -34q10 -10 18.5 -21t15.5 -23q14 -23 21 -50q3 -13 4.5 -27t1.5 -29z" />
    <glyph glyph-name="uniFE80" unicode="&#x621;" horiz-adv-x="938" arabic-form="isolated" 
d="M112 -18v274l159 57q-193 87 -191 312q1 218 187 319t438 31l37 -10v-252l-60 12q-177 36 -271 1q-76 -27 -76 -91.5t37.5 -98.5t123.5 -51q165 -33 290 34l73 40v-290z" />
    <glyph glyph-name="uniFE81" unicode="&#x622;" horiz-adv-x="626" arabic-form="isolated" 
d="M202 1351.64h273v-1351.74h-273v1351.74zM256 1573q-78 13 -156 -82l-41 -51l-139 193l20 29q129 190 313 154l118 -22q94 -18 171 38l46 34l110 -203l-27 -26q-118 -113 -305 -82z" />
    <glyph glyph-name="uniFE82" unicode="&#x622;" horiz-adv-x="554" arabic-form="final" 
d="M559 0h-18q-211 0 -325 153q-97 131 -97 379v971h274v-986q0 -133 40 -182q39 -47 108 -47h18q75 0 75 -138v-18q0 -132 -75 -132zM226 1716q-78 13 -156 -82l-41 -51l-139 193l20 29q129 190 313 154l118 -22q94 -18 171 38l46 34l110 -203l-27 -26q-118 -113 -305 -82z
" />
    <glyph glyph-name="uniFE83" unicode="&#x623;" horiz-adv-x="544" arabic-form="isolated" 
d="M66 1818q-41 57 -41 128q0 152 130 222q94 49 217 19q44 -11 97 -41v-173l-36 16q-134 61 -207 18q-33 -19 -36 -54.5t19 -60t82 -42.5q38 -6 173 24l31 7v-176l-473 -106v173l67 16zM145 1503h273v-1502h-273v1502z" />
    <glyph glyph-name="uniFE84" unicode="&#x623;" horiz-adv-x="554" arabic-form="final" 
d="M559 0h-18q-211 0 -325 153q-97 131 -97 379v971h274v-986q0 -133 40 -182q39 -47 108 -47h18q75 0 75 -138v-18q0 -132 -75 -132zM56 1816q-41 57 -41 128q0 152 130 222q94 49 217 19q44 -11 97 -41v-173l-36 16q-134 61 -207 18q-33 -19 -36 -54.5t19 -60t82 -42.5
q38 -6 173 24l31 7v-176l-473 -106v173l67 16z" />
    <glyph glyph-name="uniFE85" unicode="&#x624;" horiz-adv-x="960" arabic-form="isolated" 
d="M265 1152q-41 57 -41 128q0 152 130 222q94 49 217 19q44 -11 97 -41v-173l-36 16q-134 61 -207 18q-33 -19 -36 -54.5t19 -60t82 -42.5q38 -6 173 24l31 7v-176l-473 -106v173l67 16zM374 310q37 -54 229 -27q-20 269 -133 268q-53 -1 -82 -56t-29 -131q0 -34 15 -54z
M875 285q8 -148 -9 -238q-30 -149 -86 -236q-179 -276 -636 -320l-46 -4l-49 270l55 4q350 28 463 231q-282 -25 -396 120q-72 92 -78 215q-12 239 129 399q95 108 233 115q390 21 420 -556z" />
    <glyph glyph-name="uniFE86" unicode="&#x624;" horiz-adv-x="953" arabic-form="final" 
d="M958 288q75 0 75 -138v-18q0 -132 -75 -132l-105 1q-28 -120 -73 -190q-178 -276 -636 -320l-46 -4l-49 270l55 4q358 29 469 240q-305 1 -403 135q-69 96 -69 225q0 245 140 393q98 105 235 105q234 0 332 -205q62 -129 68 -366h82zM400.5 313q30.5 -24 94 -24t114.5 1
q-9 280 -132 279q-31 -1 -60 -30q-47 -51 -47 -150q0 -52 30.5 -76zM264 1156q-41 57 -41 128q0 152 130 222q94 49 217 19q44 -11 97 -41v-173l-36 16q-134 61 -207 18q-33 -19 -36 -54.5t19 -60t82 -42.5q38 -6 173 24l31 7v-176l-473 -106v173l67 16z" />
    <glyph glyph-name="uniFE87" unicode="&#x625;" horiz-adv-x="544" arabic-form="isolated" 
d="M74 -417q-41 57 -41 128q0 152 130 222q94 49 217 19q44 -11 97 -41v-173l-36 16q-134 61 -207 18q-33 -19 -36 -54.5t19 -60t82 -42.5q38 -6 173 24l31 7v-176l-473 -106v173l67 16zM145 1503h273v-1502h-273v1502z" />
    <glyph glyph-name="uniFE88" unicode="&#x625;" horiz-adv-x="554" arabic-form="final" 
d="M559 0h-18q-211 0 -325 153q-97 131 -97 379v971h274v-986q0 -133 40 -182q39 -47 108 -47h18q75 0 75 -138v-18q0 -132 -75 -132zM125 -432q-41 57 -41 128q0 152 130 222q94 49 217 19q44 -11 97 -41v-173l-36 16q-134 61 -207 18q-33 -19 -36 -54.5t19 -60t82 -42.5
q38 -6 173 24l31 7v-176l-473 -106v173l67 16z" />
    <glyph glyph-name="uniFE89" unicode="&#x626;" horiz-adv-x="1527" arabic-form="isolated" 
d="M340 988q-41 57 -41 128q0 152 130 222q94 49 217 19q44 -11 97 -41v-173l-36 16q-134 61 -207 18q-33 -19 -36 -54.5t19 -60t82 -42.5q38 -6 173 24l31 7v-176l-473 -106v173l67 16zM733 -169q272 0 395 133q47 51 47 104q0 19 -30 21q-204 11 -272 39q-67 29 -99 97
t-22 160q32 308 255 429q141 78 349 53l48 -6l-21 -279h-68q-189 0 -254 -93q-31 -46 -39 -117q36 -5 101 -9q150 -9 236 -74t87 -184q0 -215 -178 -382q-179 -168 -540 -167q-299 1 -480 163q-182 161 -173 460q6 252 121 457l20 35l257 -75l-28 -54q-96 -185 -94.5 -361
t101.5 -263q101 -88 281 -87z" />
    <glyph glyph-name="uniFE8A" unicode="&#x626;" horiz-adv-x="1502" arabic-form="final" 
d="M1507 288q75 0 75 -138v-18q0 -132 -75 -132h-61q14 -37 14 -82q-1 -106 -82 -199q-221 -255 -643 -254q-299 1 -480 163q-182 161 -173 460q5 188 92 363l18 37l257 -74l-25 -53q-88 -193 -60 -361q19 -106 90 -168q104 -89 295.5 -92.5t342.5 81.5q110 63 110 127
q0 20 -45 53h-211q-100 11 -130 162q-21 103 53 123l6 1zM448 767q-41 57 -41 128q0 152 130 222q94 49 217 19q44 -11 97 -41v-173l-36 16q-134 61 -207 18q-33 -19 -36 -54.5t19 -60t82 -42.5q38 -6 173 24l31 7v-176l-473 -106v173l67 16z" />
    <glyph glyph-name="uniFE8B" unicode="&#x626;" horiz-adv-x="694" arabic-form="initial" 
d="M-6 0q-74 0 -74 132v18q0 138 74 138h119q132 0 180 54q44 49 43 172q-1 151 -49 315l272 52q51 -196 50 -353q0 -308 -161 -435q-117 -93 -345 -93h-109zM123 1169q-41 57 -41 128q0 152 130 222q94 49 217 19q44 -11 97 -41v-173l-36 16q-134 61 -207 18
q-33 -19 -36 -54.5t19 -60t82 -42.5q38 -6 173 24l31 7v-176l-473 -106v173l67 16z" />
    <glyph glyph-name="uniFE8C" unicode="&#x626;" horiz-adv-x="749" arabic-form="medial" 
d="M754 288q75 0 75 -138v-18q0 -132 -75 -132h-22q-171 0 -292 108q-125 -108 -335 -108h-111q-74 0 -74 132v18q0 138 74 138h107q195 0 211 198l19 231h220l20 -231q17 -198 167 -198h16zM150 1061q-41 57 -41 128q0 152 130 222q94 49 217 19q44 -11 97 -41v-173l-36 16
q-134 61 -207 18q-33 -19 -36 -54.5t19 -60t82 -42.5q38 -6 173 24l31 7v-176l-473 -106v173l67 16z" />
    <glyph glyph-name="uniFE8D" unicode="&#x627;" horiz-adv-x="544" arabic-form="isolated" 
d="M145 1503h273v-1502h-273v1502z" />
    <glyph glyph-name="uniFE8E" unicode="&#x627;" horiz-adv-x="554" arabic-form="final" 
d="M559 0h-18q-211 0 -325 153q-97 131 -97 379v971h274v-986q0 -133 40 -182q39 -47 108 -47h18q75 0 75 -138v-18q0 -132 -75 -132z" />
    <glyph glyph-name="uniFE8F" unicode="&#x628;" horiz-adv-x="1925" arabic-form="isolated" 
d="M350 622q3 -252 275 -308q134 -27 349 -26.5t338 29.5q253 61 251 307q0 72 -33 223l260 55q51 -143 51 -294q0 -434 -420 -553q-192 -55 -476 -55q-563 0 -749 236q-118 150 -118 367q0 138 54 290l249 -45q-32 -135 -31 -226zM1020.58 -196.031l78.1055 -78.1064
q54.5674 -54.5674 -1.06934 -110.204l-79.1768 -79.1758q-53.4971 -52.4277 -103.784 -2.14062l-79.1758 80.2461q-56.708 57.7773 -2.14062 112.345l78.1064 77.0361q54.5674 53.4971 109.135 0z" />
    <glyph glyph-name="uniFE90" unicode="&#x628;" horiz-adv-x="1977" arabic-form="final" 
d="M1982 288q75 0 75 -138v-18q0 -132 -75 -132h-29q-227 0 -325 166q-183 -164 -714 -166q-531 -1 -718 236q-118 150 -118 367q0 138 40 250l15 43l247 -61l-10 -47q-21 -104 -20 -166q4 -252 275 -308q134 -27 323 -27q339 0 460 61q121 60 128 172l11 203h233l13 -212
q9 -149 67 -195q35 -28 101 -28h21zM957.583 -192.031l78.1055 -78.1064q54.5674 -54.5674 -1.06934 -110.204l-79.1768 -79.1758q-53.4971 -52.4277 -103.784 -2.14062l-79.1758 80.2461q-56.708 57.7773 -2.14062 112.345l78.1064 77.0361q54.5674 53.4971 109.135 0z" />
    <glyph glyph-name="uniFE91" unicode="&#x628;" horiz-adv-x="699" arabic-form="initial" 
d="M-6 0q-74 0 -74 132v18q0 138 74 138h119q132 0 180 54q44 49 43 172q-1 151 -49 315l272 52q51 -196 50 -353q0 -308 -161 -435q-117 -93 -345 -93h-109zM322.583 -191.031l78.1055 -78.1064q54.5674 -54.5674 -1.06934 -110.204l-79.1768 -79.1758
q-53.4971 -52.4277 -103.784 -2.14062l-79.1758 80.2461q-56.708 57.7773 -2.14062 112.345l78.1064 77.0361q54.5674 53.4971 109.135 0z" />
    <glyph glyph-name="uniFE92" unicode="&#x628;" horiz-adv-x="749" arabic-form="medial" 
d="M754 288q75 0 75 -138v-18q0 -132 -75 -132h-22q-171 0 -292 108q-125 -108 -335 -108h-111q-74 0 -74 132v18q0 138 74 138h107q195 0 211 198l19 231h220l20 -231q17 -198 167 -198h16zM364.583 -191.031l78.1055 -78.1064q54.5674 -54.5674 -1.06934 -110.204
l-79.1768 -79.1758q-53.4971 -52.4277 -103.784 -2.14062l-79.1758 80.2461q-56.708 57.7773 -2.14062 112.345l78.1064 77.0361q54.5674 53.4971 109.135 0z" />
    <glyph glyph-name="uniFE93" unicode="&#x629;" horiz-adv-x="972" arabic-form="isolated" 
d="M485 629q-151 -142 -151 -227q1 -117 167 -117q152 0 149 107q-3 100 -165 237zM435 1035q467 -337 475 -635q6 -231 -167 -336q-97 -59 -240 -59q-280 0 -381 181q-49 86 -48 203q0 202 218 431l-49 41l152 203zM376.583 1416.97l79.1758 -78.1064
q12.8389 -13.9092 19.2588 -26.749q7.49023 13.9102 21.3994 27.8193l77.0361 77.0361q55.6367 53.4971 109.134 0l79.1768 -78.1064q53.4971 -54.5674 -2.14062 -110.204l-78.1055 -79.1758q-53.498 -52.4277 -103.785 -2.14062l-80.2461 80.2461
q-14.9785 14.9795 -21.3984 29.959q-7.49023 -14.9795 -22.4688 -28.8887l-78.1064 -79.1758q-53.4971 -52.4277 -103.785 -2.14062l-80.2451 80.2461q-56.708 57.7773 -1.07031 112.345l77.0361 77.0361q55.6367 53.4971 109.135 0z" />
    <glyph glyph-name="uniFE94" unicode="&#x629;" horiz-adv-x="1093" arabic-form="final" 
d="M1098 288q75 0 75 -138v-18q0 -132 -75 -132h-20q-261 0 -351 182l-76 -5q-294 -18 -443 88q-125 91 -124 264q1 337 518 442l-5 41l261 34l77 -582q24 -176 147 -176h16zM668 451l-33 255q-149 -31 -215 -73q-65 -43 -65 -87q0 -122 282 -98zM545.583 1439.97
l79.1758 -78.1064q12.8389 -13.9092 19.2588 -26.749q7.49023 13.9102 21.3994 27.8193l77.0361 77.0361q55.6367 53.4971 109.134 0l79.1768 -78.1064q53.4971 -54.5674 -2.14062 -110.204l-78.1055 -79.1758q-53.498 -52.4277 -103.785 -2.14062l-80.2461 80.2461
q-14.9785 14.9795 -21.3984 29.959q-7.49023 -14.9795 -22.4688 -28.8887l-78.1064 -79.1758q-53.4971 -52.4277 -103.785 -2.14062l-80.2451 80.2461q-56.708 57.7773 -1.07031 112.345l77.0361 77.0361q55.6367 53.4971 109.135 0z" />
    <glyph glyph-name="uniFE95" unicode="&#x62a;" horiz-adv-x="1925" arabic-form="isolated" 
d="M350 622q3 -252 275 -308q134 -27 349 -26.5t338 29.5q253 61 251 307q0 72 -33 223l260 55q51 -143 51 -294q0 -434 -420 -553q-192 -55 -476 -55q-563 0 -749 236q-118 150 -118 367q0 138 54 290l249 -45q-32 -135 -31 -226zM843.583 1168.97l79.1758 -78.1064
q12.8389 -13.9092 19.2588 -26.749q7.49023 13.9102 21.3994 27.8193l77.0361 77.0361q55.6367 53.4971 109.134 0l79.1768 -78.1064q53.4971 -54.5674 -2.14062 -110.204l-78.1055 -79.1758q-53.498 -52.4277 -103.785 -2.14062l-80.2461 80.2461
q-14.9785 14.9795 -21.3984 29.959q-7.49023 -14.9795 -22.4688 -28.8887l-78.1064 -79.1758q-53.4971 -52.4277 -103.785 -2.14062l-80.2451 80.2461q-56.708 57.7773 -1.07031 112.345l77.0361 77.0361q55.6367 53.4971 109.135 0z" />
    <glyph glyph-name="uniFE96" unicode="&#x62a;" horiz-adv-x="1977" arabic-form="final" 
d="M1982 288q75 0 75 -138v-18q0 -132 -75 -132h-29q-227 0 -325 166q-183 -164 -714 -166q-531 -1 -718 236q-118 150 -118 367q0 138 40 250l15 43l247 -61l-10 -47q-21 -104 -20 -166q4 -252 275 -308q134 -27 323 -27q339 0 460 61q121 60 128 172l11 203h233l13 -212
q9 -149 67 -195q35 -28 101 -28h21zM844.583 1132.97l79.1758 -78.1064q12.8389 -13.9092 19.2588 -26.749q7.49023 13.9102 21.3994 27.8193l77.0361 77.0361q55.6367 53.4971 109.134 0l79.1768 -78.1064q53.4971 -54.5674 -2.14062 -110.204l-78.1055 -79.1758
q-53.498 -52.4277 -103.785 -2.14062l-80.2461 80.2461q-14.9785 14.9795 -21.3984 29.959q-7.49023 -14.9795 -22.4688 -28.8887l-78.1064 -79.1758q-53.4971 -52.4277 -103.785 -2.14062l-80.2451 80.2461q-56.708 57.7773 -1.07031 112.345l77.0361 77.0361
q55.6367 53.4971 109.135 0z" />
    <glyph glyph-name="uniFE97" unicode="&#x62a;" horiz-adv-x="699" arabic-form="initial" 
d="M-6 0q-74 0 -74 132v18q0 138 74 138h119q132 0 180 54q44 49 43 172q-1 151 -49 315l272 52q51 -196 50 -353q0 -308 -161 -435q-117 -93 -345 -93h-109zM234.583 1319.97l79.1758 -78.1064q12.8389 -13.9092 19.2588 -26.749q7.49023 13.9102 21.3994 27.8193
l77.0361 77.0361q55.6367 53.4971 109.134 0l79.1768 -78.1064q53.4971 -54.5674 -2.14062 -110.204l-78.1055 -79.1758q-53.498 -52.4277 -103.785 -2.14062l-80.2461 80.2461q-14.9785 14.9795 -21.3984 29.959q-7.49023 -14.9795 -22.4688 -28.8887l-78.1064 -79.1758
q-53.4971 -52.4277 -103.785 -2.14062l-80.2451 80.2461q-56.708 57.7773 -1.07031 112.345l77.0361 77.0361q55.6367 53.4971 109.135 0z" />
    <glyph glyph-name="uniFE98" unicode="&#x62a;" horiz-adv-x="749" arabic-form="medial" 
d="M754 288q75 0 75 -138v-18q0 -132 -75 -132h-22q-171 0 -292 108q-125 -108 -335 -108h-111q-74 0 -74 132v18q0 138 74 138h107q195 0 211 198l19 231h220l20 -231q17 -198 167 -198h16zM241.583 1225.97l79.1758 -78.1064q12.8389 -13.9092 19.2588 -26.749
q7.49023 13.9102 21.3994 27.8193l77.0361 77.0361q55.6367 53.4971 109.134 0l79.1768 -78.1064q53.4971 -54.5674 -2.14062 -110.204l-78.1055 -79.1758q-53.498 -52.4277 -103.785 -2.14062l-80.2461 80.2461q-14.9785 14.9795 -21.3984 29.959
q-7.49023 -14.9795 -22.4688 -28.8887l-78.1064 -79.1758q-53.4971 -52.4277 -103.785 -2.14062l-80.2451 80.2461q-56.708 57.7773 -1.07031 112.345l77.0361 77.0361q55.6367 53.4971 109.135 0z" />
    <glyph glyph-name="uniFE99" unicode="&#x62b;" horiz-adv-x="1925" arabic-form="isolated" 
d="M350 622q3 -252 275 -308q134 -27 349 -26.5t338 29.5q253 61 251 307q0 72 -33 223l260 55q51 -143 51 -294q0 -434 -420 -553q-192 -55 -476 -55q-563 0 -749 236q-118 150 -118 367q0 138 54 290l249 -45q-32 -135 -31 -226zM848.583 1097.85l79.1758 -78.1064
q11.7695 -12.8389 18.1885 -25.6787q8.56055 12.8398 22.4697 26.749l77.0361 77.0361q54.5664 54.5674 109.134 0l79.1768 -78.1064q53.4971 -54.5674 -2.14062 -110.204l-78.1055 -79.1758q-50.2881 -49.2178 -103.785 -2.14062l-90.9453 80.2461
q-10.6992 9.62988 -17.1191 19.2588q-6.41992 -8.55957 -16.0488 -18.1885l-78.1064 -79.1758q-53.4971 -52.4277 -103.785 -2.14062l-80.2451 80.2461q-56.708 57.7773 -1.07031 112.345l77.0361 77.0361q55.6367 53.4971 109.135 0zM1001.58 1364.27l79.1758 -78.1055
q53.4971 -54.5674 -2.13965 -110.205l-78.1064 -79.1758q-50.2871 -49.2178 -103.784 -2.13965l-90.9453 80.2461q-54.5674 48.1475 9.62891 112.344l77.0361 77.0361q54.5674 54.5674 109.135 0z" />
    <glyph glyph-name="uniFE9A" unicode="&#x62b;" horiz-adv-x="1977" arabic-form="final" 
d="M1982 288q75 0 75 -138v-18q0 -132 -75 -132h-29q-227 0 -325 166q-183 -164 -714 -166q-531 -1 -718 236q-118 150 -118 367q0 138 40 250l15 43l247 -61l-10 -47q-21 -104 -20 -166q4 -252 275 -308q134 -27 323 -27q339 0 460 61q121 60 128 172l11 203h233l13 -212
q9 -149 67 -195q35 -28 101 -28h21zM847.583 1037.85l79.1758 -78.1064q11.7695 -12.8389 18.1885 -25.6787q8.56055 12.8398 22.4697 26.749l77.0361 77.0361q54.5664 54.5674 109.134 0l79.1768 -78.1064q53.4971 -54.5674 -2.14062 -110.204l-78.1055 -79.1758
q-50.2881 -49.2178 -103.785 -2.14062l-90.9453 80.2461q-10.6992 9.62988 -17.1191 19.2588q-6.41992 -8.55957 -16.0488 -18.1885l-78.1064 -79.1758q-53.4971 -52.4277 -103.785 -2.14062l-80.2451 80.2461q-56.708 57.7773 -1.07031 112.345l77.0361 77.0361
q55.6367 53.4971 109.135 0zM1000.58 1304.27l79.1758 -78.1055q53.4971 -54.5674 -2.13965 -110.205l-78.1064 -79.1758q-50.2871 -49.2178 -103.784 -2.13965l-90.9453 80.2461q-54.5674 48.1475 9.62891 112.344l77.0361 77.0361q54.5674 54.5674 109.135 0z" />
    <glyph glyph-name="uniFE9B" unicode="&#x62b;" horiz-adv-x="699" arabic-form="initial" 
d="M-6 0q-74 0 -74 132v18q0 138 74 138h119q132 0 180 54q44 49 43 172q-1 151 -49 315l272 52q51 -196 50 -353q0 -308 -161 -435q-117 -93 -345 -93h-109zM237.583 1273.85l79.1758 -78.1064q11.7695 -12.8389 18.1885 -25.6787q8.56055 12.8398 22.4697 26.749
l77.0361 77.0361q54.5664 54.5674 109.134 0l79.1768 -78.1064q53.4971 -54.5674 -2.14062 -110.204l-78.1055 -79.1758q-50.2881 -49.2178 -103.785 -2.14062l-90.9453 80.2461q-10.6992 9.62988 -17.1191 19.2588q-6.41992 -8.55957 -16.0488 -18.1885l-78.1064 -79.1758
q-53.4971 -52.4277 -103.785 -2.14062l-80.2451 80.2461q-56.708 57.7773 -1.07031 112.345l77.0361 77.0361q55.6367 53.4971 109.135 0zM390.585 1540.27l79.1758 -78.1055q53.4971 -54.5674 -2.13965 -110.205l-78.1064 -79.1758q-50.2871 -49.2178 -103.784 -2.13965
l-90.9453 80.2461q-54.5674 48.1475 9.62891 112.344l77.0361 77.0361q54.5674 54.5674 109.135 0z" />
    <glyph glyph-name="uniFE9C" unicode="&#x62b;" horiz-adv-x="749" arabic-form="medial" 
d="M754 288q75 0 75 -138v-18q0 -132 -75 -132h-22q-171 0 -292 108q-125 -108 -335 -108h-111q-74 0 -74 132v18q0 138 74 138h107q195 0 211 198l19 231h220l20 -231q17 -198 167 -198h16zM241.583 1183.85l79.1758 -78.1064q11.7695 -12.8389 18.1885 -25.6787
q8.56055 12.8398 22.4697 26.749l77.0361 77.0361q54.5664 54.5674 109.134 0l79.1768 -78.1064q53.4971 -54.5674 -2.14062 -110.204l-78.1055 -79.1758q-50.2881 -49.2178 -103.785 -2.14062l-90.9453 80.2461q-10.6992 9.62988 -17.1191 19.2588
q-6.41992 -8.55957 -16.0488 -18.1885l-78.1064 -79.1758q-53.4971 -52.4277 -103.785 -2.14062l-80.2451 80.2461q-56.708 57.7773 -1.07031 112.345l77.0361 77.0361q55.6367 53.4971 109.135 0zM394.585 1450.27l79.1758 -78.1055q53.4971 -54.5674 -2.13965 -110.205
l-78.1064 -79.1758q-50.2871 -49.2178 -103.784 -2.13965l-90.9453 80.2461q-54.5674 48.1475 9.62891 112.344l77.0361 77.0361q54.5674 54.5674 109.135 0z" />
    <glyph glyph-name="uniFE9D" unicode="&#x62c;" horiz-adv-x="1405" arabic-form="isolated" 
d="M1320 768l-11 -286l-50 2q-127 5 -275 -18q-149 -23 -237 -50q-172 -54 -270 -150q-122 -118 -122 -285q1 -321 495 -321q199 1 412 71l69 -254q-220 -87 -484 -87q-374 2 -571 153q-197 152 -196 443q1 289 234 497q140 125 426 194q-167 63 -268 47q-109 -18 -221 -141
l-30 -34l-207 151l52 69q181 243 452 240q116 -1 372 -114q252 -112 382 -123zM895.583 188.969l78.1055 -78.1064q54.5674 -54.5674 -1.06934 -110.204l-79.1768 -79.1758q-53.4971 -52.4277 -103.784 -2.14062l-79.1758 80.2461q-56.708 57.7773 -2.14062 112.345
l78.1064 77.0361q54.5674 53.4971 109.135 0z" />
    <glyph glyph-name="uniFE9E" unicode="&#x62c;" horiz-adv-x="1422" arabic-form="final" 
d="M744 675q-171 65 -272 49q-109 -18 -221 -141l-30 -34l-207 151l52 69q181 243 452 240q119 -1 372 -114q252 -112 382 -123l48 -4l-11 -282q-25 4 -138 -3q10 -102 66 -149q55 -46 170 -46h36v-287h-25q-231 0 -360.5 116.5t-142.5 337.5q-299 -51 -439 -189
q-121 -117 -121 -285q1 -321 495 -321q199 1 412 71l69 -254q-220 -87 -484 -87q-364 2 -566 153.5t-201 437t225 489.5q154 139 439 205zM780.583 158.969l78.1055 -78.1064q54.5674 -54.5674 -1.06934 -110.204l-79.1768 -79.1758q-53.4971 -52.4277 -103.784 -2.14062
l-79.1758 80.2461q-56.708 57.7773 -2.14062 112.345l78.1064 77.0361q54.5674 53.4971 109.135 0z" />
    <glyph glyph-name="uniFE9F" unicode="&#x62c;" horiz-adv-x="1437" arabic-form="initial" 
d="M711.583 -191.031l78.1055 -78.1064q54.5674 -54.5674 -1.06934 -110.204l-79.1768 -79.1758q-53.4971 -52.4277 -103.784 -2.14062l-79.1758 80.2461q-56.708 57.7773 -2.14062 112.345l78.1064 77.0361q54.5674 53.4971 109.135 0zM-6 288h113q461 0 815 257
q-273 113 -402 111q-117 -2 -245 -144l-31 -34l-208 152l56 70q193 236 408 238q189 1 393 -85q363 -151 421 -156l50 -4l-23 -263l-48 3q-25 2 -92 -36q-70 -37 -141 -85q-156 -103 -284 -164q-315 -148 -690 -148h-92q-74 0 -74 132v18q0 138 74 138z" />
    <glyph glyph-name="uniFEA0" unicode="&#x62c;" horiz-adv-x="1495" arabic-form="medial" 
d="M700.583 -191.031l78.1055 -78.1064q54.5674 -54.5674 -1.06934 -110.204l-79.1768 -79.1758q-53.4971 -52.4277 -103.784 -2.14062l-79.1758 80.2461q-56.708 57.7773 -2.14062 112.345l78.1064 77.0361q54.5674 53.4971 109.135 0zM-6 288h113q461 0 815 257
q-271 113 -402 111q-117 -2 -245 -144l-31 -34l-208 152l56 70q193 236 408 238q189 1 393 -85q356 -150 421 -156l50 -4l-23 -261h-26q-52 0 -116 -38q29 -103 270 -106h31q75 -1 75 -138v-18q0 -132 -75 -132h-35q-408 0 -482 261q-104 -64 -206 -113q-311 -148 -691 -148
h-92q-74 0 -74 132v18q0 138 74 138z" />
    <glyph glyph-name="uniFEA1" unicode="&#x62d;" horiz-adv-x="1405" arabic-form="isolated" 
d="M1320 768l-11 -286l-50 2q-127 5 -275 -18q-149 -23 -237 -50q-172 -54 -270 -150q-122 -118 -122 -285q1 -321 495 -321q199 1 412 71l69 -254q-220 -87 -484 -87q-374 2 -571 153q-197 152 -196 443q1 289 234 497q140 125 426 194q-167 63 -268 47q-109 -18 -221 -141
l-30 -34l-207 151l52 69q181 243 452 240q116 -1 372 -114q252 -112 382 -123z" />
    <glyph glyph-name="uniFEA2" unicode="&#x62d;" horiz-adv-x="1422" arabic-form="final" 
d="M744 675q-171 65 -272 49q-109 -18 -221 -141l-30 -34l-207 151l52 69q181 243 452 240q119 -1 372 -114q252 -112 382 -123l48 -4l-11 -282q-25 4 -138 -3q10 -102 66 -149q55 -46 170 -46h36v-287h-25q-231 0 -360.5 116.5t-142.5 337.5q-299 -51 -439 -189
q-121 -117 -121 -285q1 -321 495 -321q199 1 412 71l69 -254q-220 -87 -484 -87q-364 2 -566 153.5t-201 437t225 489.5q154 139 439 205z" />
    <glyph glyph-name="uniFEA3" unicode="&#x62d;" horiz-adv-x="1437" arabic-form="initial" 
d="M-6 288h113q461 0 815 257q-273 113 -402 111q-117 -2 -245 -144l-31 -34l-208 152l56 70q193 236 408 238q189 1 393 -85q363 -151 421 -156l50 -4l-23 -263l-48 3q-25 2 -92 -36q-70 -37 -141 -85q-156 -103 -284 -164q-315 -148 -690 -148h-92q-74 0 -74 132v18
q0 138 74 138z" />
    <glyph glyph-name="uniFEA4" unicode="&#x62d;" horiz-adv-x="1495" arabic-form="medial" 
d="M-6 288h113q461 0 815 257q-271 113 -402 111q-117 -2 -245 -144l-31 -34l-208 152l56 70q193 236 408 238q189 1 393 -85q356 -150 421 -156l50 -4l-23 -261h-26q-52 0 -116 -38q29 -103 270 -106h31q75 -1 75 -138v-18q0 -132 -75 -132h-35q-408 0 -482 261
q-104 -64 -206 -113q-311 -148 -691 -148h-92q-74 0 -74 132v18q0 138 74 138z" />
    <glyph glyph-name="uniFEA5" unicode="&#x62e;" horiz-adv-x="1405" arabic-form="isolated" 
d="M746.583 1482.97l78.1055 -78.1064q54.5674 -54.5674 -1.06934 -110.204l-79.1768 -79.1758q-53.4971 -52.4277 -103.784 -2.14062l-79.1758 80.2461q-56.708 57.7773 -2.14062 112.345l78.1064 77.0361q54.5674 53.4971 109.135 0zM1320 768l-11 -286l-50 2
q-127 5 -275 -18q-149 -23 -237 -50q-172 -54 -270 -150q-122 -118 -122 -285q1 -321 495 -321q199 1 412 71l69 -254q-220 -87 -484 -87q-374 2 -571 153q-197 152 -196 443q1 289 234 497q140 125 426 194q-167 63 -268 47q-109 -18 -221 -141l-30 -34l-207 151l52 69
q181 243 452 240q116 -1 372 -114q252 -112 382 -123z" />
    <glyph glyph-name="uniFEA6" unicode="&#x62e;" horiz-adv-x="1422" arabic-form="final" 
d="M744 675q-171 65 -272 49q-109 -18 -221 -141l-30 -34l-207 151l52 69q181 243 452 240q119 -1 372 -114q252 -112 382 -123l48 -4l-11 -282q-25 4 -138 -3q10 -102 66 -149q55 -46 170 -46h36v-287h-25q-231 0 -360.5 116.5t-142.5 337.5q-299 -51 -439 -189
q-121 -117 -121 -285q1 -321 495 -321q199 1 412 71l69 -254q-220 -87 -484 -87q-364 2 -566 153.5t-201 437t225 489.5q154 139 439 205zM721.583 1482.97l78.1055 -78.1064q54.5674 -54.5674 -1.06934 -110.204l-79.1768 -79.1758q-53.4971 -52.4277 -103.784 -2.14062
l-79.1758 80.2461q-56.708 57.7773 -2.14062 112.345l78.1064 77.0361q54.5674 53.4971 109.135 0z" />
    <glyph glyph-name="uniFEA7" unicode="&#x62e;" horiz-adv-x="1437" arabic-form="initial" 
d="M659.583 1428.97l78.1055 -78.1064q54.5674 -54.5674 -1.06934 -110.204l-79.1768 -79.1758q-53.4971 -52.4277 -103.784 -2.14062l-79.1758 80.2461q-56.708 57.7773 -2.14062 112.345l78.1064 77.0361q54.5674 53.4971 109.135 0zM-6 288h113q461 0 815 257
q-273 113 -402 111q-117 -2 -245 -144l-31 -34l-208 152l56 70q193 236 408 238q189 1 393 -85q363 -151 421 -156l50 -4l-23 -263l-48 3q-25 2 -92 -36q-70 -37 -141 -85q-156 -103 -284 -164q-315 -148 -690 -148h-92q-74 0 -74 132v18q0 138 74 138z" />
    <glyph glyph-name="uniFEA8" unicode="&#x62e;" horiz-adv-x="1495" arabic-form="medial" 
d="M659.583 1418.97l78.1055 -78.1064q54.5674 -54.5674 -1.06934 -110.204l-79.1768 -79.1758q-53.4971 -52.4277 -103.784 -2.14062l-79.1758 80.2461q-56.708 57.7773 -2.14062 112.345l78.1064 77.0361q54.5674 53.4971 109.135 0zM-6 288h113q461 0 815 257
q-271 113 -402 111q-117 -2 -245 -144l-31 -34l-208 152l56 70q193 236 408 238q189 1 393 -85q356 -150 421 -156l50 -4l-23 -261h-26q-52 0 -116 -38q29 -103 270 -106h31q75 -1 75 -138v-18q0 -132 -75 -132h-35q-408 0 -482 261q-104 -64 -206 -113q-311 -148 -691 -148
h-92q-74 0 -74 132v18q0 138 74 138z" />
    <glyph glyph-name="uniFEA9" unicode="&#x62f;" horiz-adv-x="1072" arabic-form="isolated" 
d="M137 311q248 -39 427 -13q104 14 138 54q38 44 -34 150q-104 157 -333 319l-40 28l159 234l42 -30q491 -358 493 -665q1 -116 -59 -206q-123 -180 -501 -180q-193 0 -309 22l-40 8v288z" />
    <glyph glyph-name="uniFEAA" unicode="&#x62f;" horiz-adv-x="1164" arabic-form="final" 
d="M1169 288q75 0 75 -138v-18q0 -132 -75 -132h-27q-143 0 -255 119q-143 -119 -459 -120q-193 -1 -315 29l-38 9v292l61 -13q257 -56 486 -20q66 10 82 27t-7 77q-22 57 -62 151l-182 421l250 125l256 -586q53 -122 102 -172q51 -51 91 -51h17z" />
    <glyph glyph-name="uniFEAB" unicode="&#x630;" horiz-adv-x="1072" arabic-form="isolated" 
d="M137 311q248 -39 427 -13q104 14 138 54q38 44 -34 150q-104 157 -333 319l-40 28l159 234l42 -30q491 -358 493 -665q1 -116 -59 -206q-123 -180 -501 -180q-193 0 -309 22l-40 8v288zM471.583 1523.97l78.1055 -78.1064q54.5674 -54.5674 -1.06934 -110.204
l-79.1768 -79.1758q-53.4971 -52.4277 -103.784 -2.14062l-79.1758 80.2461q-56.708 57.7773 -2.14062 112.345l78.1064 77.0361q54.5674 53.4971 109.135 0z" />
    <glyph glyph-name="uniFEAC" unicode="&#x630;" horiz-adv-x="1164" arabic-form="final" 
d="M1169 288q75 0 75 -138v-18q0 -132 -75 -132h-27q-143 0 -255 119q-143 -119 -459 -120q-193 -1 -315 29l-38 9v292l61 -13q257 -56 486 -20q66 10 82 27t-7 77q-22 57 -62 151l-182 421l250 125l256 -586q53 -122 102 -172q51 -51 91 -51h17zM591.583 1525.97
l78.1055 -78.1064q54.5674 -54.5674 -1.06934 -110.204l-79.1768 -79.1758q-53.4971 -52.4277 -103.784 -2.14062l-79.1758 80.2461q-56.708 57.7773 -2.14062 112.345l78.1064 77.0361q54.5674 53.4971 109.135 0z" />
    <glyph glyph-name="uniFEAD" unicode="&#x631;" horiz-adv-x="895" arabic-form="isolated" 
d="M420 575l251 124l24 -41q130 -232 128 -485q-1 -217 -104 -369q-183 -271 -637 -311l-45 -4l-48 268l54 5q335 29 464 212q50 70 48 197q-3 178 -108 358z" />
    <glyph glyph-name="uniFEAE" unicode="&#x631;" horiz-adv-x="942" arabic-form="final" 
d="M947 288q75 0 75 -138v-18q0 -132 -75 -132h-14q-75 0 -121 20q-26 -111 -95 -215q-181 -272 -635 -312l-45 -4l-48 268l54 5q326 28 464 222q69 97 40 276q-22 136 -100 269l-27 46l257 127l109 -271q58 -143 146 -143h15z" />
    <glyph glyph-name="uniFEAF" unicode="&#x632;" horiz-adv-x="895" arabic-form="isolated" 
d="M420 575l251 124l24 -41q130 -232 128 -485q-1 -217 -104 -369q-183 -271 -637 -311l-45 -4l-48 268l54 5q335 29 464 212q50 70 48 197q-3 178 -108 358zM545.583 1159.97l78.1055 -78.1064q54.5674 -54.5674 -1.06934 -110.204l-79.1768 -79.1758
q-53.4971 -52.4277 -103.784 -2.14062l-79.1758 80.2461q-56.708 57.7773 -2.14062 112.345l78.1064 77.0361q54.5674 53.4971 109.135 0z" />
    <glyph glyph-name="uniFEB0" unicode="&#x632;" horiz-adv-x="942" arabic-form="final" 
d="M948 288q75 0 75 -138v-18q0 -132 -75 -132h-14q-75 0 -121 20q-26 -111 -95 -215q-181 -272 -635 -312l-45 -4l-48 268l54 5q326 28 464 222q69 97 40 276q-22 136 -100 269l-27 46l257 127l109 -271q58 -143 146 -143h15zM562.583 1164.97l78.1055 -78.1064
q54.5674 -54.5674 -1.06934 -110.204l-79.1768 -79.1758q-53.4971 -52.4277 -103.784 -2.14062l-79.1758 80.2461q-56.708 57.7773 -2.14062 112.345l78.1064 77.0361q54.5674 53.4971 109.135 0z" />
    <glyph glyph-name="uniFEB1" unicode="&#x633;" horiz-adv-x="2686" arabic-form="isolated" 
d="M1541 0q-70 0 -130 25q-31 -239 -202 -384q-171 -146 -476 -145q-304 1 -485 163q-182 161 -173 460q6 252 121 457l20 35l257 -75l-28 -54q-96 -185 -94.5 -361t102.5 -263q102 -88 304 -87q202 0 296 90q184 176 1 689l-16 48l257 90l96 -295q34 -105 135 -105
q126 -1 134 129l18 283h225l16 -284q8 -131 136 -129q34 1 56 13q76 40 66 196q-13 184 -52 312l270 50q50 -188 54 -342q9 -377 -240 -484q-75 -32 -145 -32q-191 -1 -281 106q-85 -106 -242 -106z" />
    <glyph glyph-name="uniFEB2" unicode="&#x633;" horiz-adv-x="2630" arabic-form="final" 
d="M2635 288q75 0 75 -138v-18q0 -133 -75 -132l-56 1q-169 1 -264 108q-87 -110 -260 -109t-268 111q-87 -112 -235 -112q-78 1 -141 25q-31 -238 -202 -383q-171 -146 -476 -145q-304 1 -485 163q-182 161 -173 460q6 252 121 457l20 35l257 -75l-28 -54
q-96 -185 -95 -361q2 -176 103 -263q102 -88 304 -87q202 0 296 90q184 176 1 689l-16 48l257 90l96 -295q34 -104 150 -105q116 0 122 129l15 282h225l18 -287q9 -125 137 -125q112 0 117 132l12 299h222l14 -296q6 -134 174 -134h38z" />
    <glyph glyph-name="uniFEB3" unicode="&#x633;" horiz-adv-x="1678" arabic-form="initial" 
d="M-6 0q-74 0 -74 132v18q0 138 74 138h118q184 0 194 134l21 275h216l17 -270q8 -139 137 -140q111 0 122 136l23 275h216l22 -276q11 -143 136 -138q16 1 32 8q87 38 75 222q-10 162 -49 294l269 50q50 -189 54 -333q7 -268 -107 -396q-115 -129 -287 -129t-262 109
q-92 -110 -248 -109q-166 1 -261 119q-103 -119 -321 -119h-117z" />
    <glyph glyph-name="uniFEB4" unicode="&#x633;" horiz-adv-x="1766" arabic-form="medial" 
d="M1771 288q75 -1 75 -138v-18q0 -132 -75 -132h-33q-204 0 -293 108q-88 -107 -251 -107t-252 110q-88 -112 -254 -111q-155 1 -256 118q-103 -118 -321 -118h-117q-74 0 -74 132v18q0 138 74 138h118q184 0 194 134l21 275h216l17 -270q8 -140 137 -140q111 0 122 136
l23 275h216l22 -276q10 -135 123 -134q103 0 111 129l20 300h216l20 -304q8 -122 173 -125h28z" />
    <glyph glyph-name="uniFEB5" unicode="&#x634;" horiz-adv-x="2531" arabic-form="isolated" 
d="M1640.58 1176.85l79.1758 -78.1064q11.7695 -12.8389 18.1885 -25.6787q8.56055 12.8398 22.4697 26.749l77.0361 77.0361q54.5664 54.5674 109.134 0l79.1768 -78.1064q53.4971 -54.5674 -2.14062 -110.204l-78.1055 -79.1758q-50.2881 -49.2178 -103.785 -2.14062
l-90.9453 80.2461q-10.6992 9.62988 -17.1191 19.2588q-6.41992 -8.55957 -16.0488 -18.1885l-78.1064 -79.1758q-53.4971 -52.4277 -103.785 -2.14062l-80.2451 80.2461q-56.708 57.7773 -1.07031 112.345l77.0361 77.0361q55.6367 53.4971 109.135 0zM1793.58 1443.27
l79.1758 -78.1055q53.4971 -54.5674 -2.13965 -110.205l-78.1064 -79.1758q-50.2871 -49.2178 -103.784 -2.13965l-90.9453 80.2461q-54.5674 48.1475 9.62891 112.344l77.0361 77.0361q54.5674 54.5674 109.135 0zM1541 0q-70 0 -130 25q-31 -239 -202 -384
q-171 -146 -476 -145q-304 1 -485 163q-182 161 -173 460q6 252 121 457l20 35l257 -75l-28 -54q-96 -185 -94.5 -361t102.5 -263q102 -88 304 -87q202 0 296 90q184 176 1 689l-16 48l257 90l96 -295q34 -105 135 -105q126 -1 134 129l18 283h225l16 -284q8 -131 136 -129
q34 1 56 13q76 40 66 196q-13 184 -52 312l270 50q50 -188 54 -342q9 -377 -240 -484q-75 -32 -145 -32q-191 -1 -281 106q-85 -106 -242 -106z" />
    <glyph glyph-name="uniFEB6" unicode="&#x634;" horiz-adv-x="2630" arabic-form="final" 
d="M2635 288q75 0 75 -138v-18q0 -133 -75 -132l-56 1q-169 1 -264 108q-87 -110 -260 -109t-268 111q-87 -112 -235 -112q-78 1 -141 25q-31 -238 -202 -383q-171 -146 -476 -145q-304 1 -485 163q-182 161 -173 460q6 252 121 457l20 35l257 -75l-28 -54
q-96 -185 -95 -361q2 -176 103 -263q102 -88 304 -87q202 0 296 90q184 176 1 689l-16 48l257 90l96 -295q34 -104 150 -105q116 0 122 129l15 282h225l18 -287q9 -125 137 -125q112 0 117 132l12 299h222l14 -296q6 -134 174 -134h38zM1660.58 1176.85l79.1758 -78.1064
q11.7695 -12.8389 18.1885 -25.6787q8.56055 12.8398 22.4697 26.749l77.0361 77.0361q54.5664 54.5674 109.134 0l79.1768 -78.1064q53.4971 -54.5674 -2.14062 -110.204l-78.1055 -79.1758q-50.2881 -49.2178 -103.785 -2.14062l-90.9453 80.2461
q-10.6992 9.62988 -17.1191 19.2588q-6.41992 -8.55957 -16.0488 -18.1885l-78.1064 -79.1758q-53.4971 -52.4277 -103.785 -2.14062l-80.2451 80.2461q-56.708 57.7773 -1.07031 112.345l77.0361 77.0361q55.6367 53.4971 109.135 0zM1813.58 1443.27l79.1758 -78.1055
q53.4971 -54.5674 -2.13965 -110.205l-78.1064 -79.1758q-50.2871 -49.2178 -103.784 -2.13965l-90.9453 80.2461q-54.5674 48.1475 9.62891 112.344l77.0361 77.0361q54.5674 54.5674 109.135 0z" />
    <glyph glyph-name="uniFEB7" unicode="&#x634;" horiz-adv-x="1678" arabic-form="initial" 
d="M-6 0q-74 0 -74 132v18q0 138 74 138h118q184 0 194 134l21 275h216l17 -270q8 -139 137 -140q111 0 122 136l23 275h216l22 -276q11 -143 136 -138q16 1 32 8q87 38 75 222q-10 162 -49 294l269 50q50 -189 54 -333q7 -268 -107 -396q-115 -129 -287 -129t-262 109
q-92 -110 -248 -109q-166 1 -261 119q-103 -119 -321 -119h-117zM813.583 1179.85l79.1758 -78.1064q11.7695 -12.8389 18.1885 -25.6787q8.56055 12.8398 22.4697 26.749l77.0361 77.0361q54.5664 54.5674 109.134 0l79.1768 -78.1064q53.4971 -54.5674 -2.14062 -110.204
l-78.1055 -79.1758q-50.2881 -49.2178 -103.785 -2.14062l-90.9453 80.2461q-10.6992 9.62988 -17.1191 19.2588q-6.41992 -8.55957 -16.0488 -18.1885l-78.1064 -79.1758q-53.4971 -52.4277 -103.785 -2.14062l-80.2451 80.2461q-56.708 57.7773 -1.07031 112.345
l77.0361 77.0361q55.6367 53.4971 109.135 0zM966.585 1446.27l79.1758 -78.1055q53.4971 -54.5674 -2.13965 -110.205l-78.1064 -79.1758q-50.2871 -49.2178 -103.784 -2.13965l-90.9453 80.2461q-54.5674 48.1475 9.62891 112.344l77.0361 77.0361
q54.5674 54.5674 109.135 0z" />
    <glyph glyph-name="uniFEB8" unicode="&#x634;" horiz-adv-x="1766" arabic-form="medial" 
d="M1771 288q75 -1 75 -138v-18q0 -132 -75 -132h-33q-204 0 -293 108q-88 -107 -251 -107t-252 110q-88 -112 -254 -111q-155 1 -256 118q-103 -118 -321 -118h-117q-74 0 -74 132v18q0 138 74 138h118q184 0 194 134l21 275h216l17 -270q8 -140 137 -140q111 0 122 136
l23 275h216l22 -276q10 -135 123 -134q103 0 111 129l20 300h216l20 -304q8 -122 173 -125h28zM815.583 1178.85l79.1758 -78.1064q11.7695 -12.8389 18.1885 -25.6787q8.56055 12.8398 22.4697 26.749l77.0361 77.0361q54.5664 54.5674 109.134 0l79.1768 -78.1064
q53.4971 -54.5674 -2.14062 -110.204l-78.1055 -79.1758q-50.2881 -49.2178 -103.785 -2.14062l-90.9453 80.2461q-10.6992 9.62988 -17.1191 19.2588q-6.41992 -8.55957 -16.0488 -18.1885l-78.1064 -79.1758q-53.4971 -52.4277 -103.785 -2.14062l-80.2451 80.2461
q-56.708 57.7773 -1.07031 112.345l77.0361 77.0361q55.6367 53.4971 109.135 0zM968.585 1445.27l79.1758 -78.1055q53.4971 -54.5674 -2.13965 -110.205l-78.1064 -79.1758q-50.2871 -49.2178 -103.784 -2.13965l-90.9453 80.2461q-54.5674 48.1475 9.62891 112.344
l77.0361 77.0361q54.5674 54.5674 109.135 0z" />
    <glyph glyph-name="uniFEB9" unicode="&#x635;" horiz-adv-x="2589" arabic-form="isolated" 
d="M1672 289h135q429 0 429 185q0 153 -157 153q-183 0 -407 -338zM1615 0q-136 0 -202 42q-12 -116 -63 -221q-161 -327 -617 -325q-304 1 -485.5 162.5t-172.5 460.5q6 252 121 457l20 35l257 -75l-28 -54q-96 -185 -95 -361q3 -352 407 -350q202 0 296 90q184 176 1 689
l-16 48l257 90l96 -295q7 -21 16 -34q294 555 686 554q191 -1 305 -111t115 -317q3 -365 -466 -456q-149 -29 -343 -29h-89z" />
    <glyph glyph-name="uniFEBA" unicode="&#x635;" horiz-adv-x="2666" arabic-form="final" 
d="M2671 288q75 0 75 -138v-18q0 -132 -75 -132h-21q-217 0 -336 122q-204 -122 -610 -122h-89q-136 0 -202 42q-12 -116 -63 -221q-160 -326 -617 -325q-304 1 -485 163q-182 161 -173 460q6 252 121 457l20 35l257 -75l-28 -54q-96 -185 -95 -361q2 -176 103 -263
q102 -88 304 -87q202 0 296 90q184 176 1 689l-16 48l257 90l96 -295q7 -21 16 -34q294 555 686 554q189 -1 300 -107q119 -115 120 -321q1 -77 -21 -144q71 -53 163 -53h16zM1672 289h135q429 0 429 185q0 153 -157 153q-183 0 -407 -338z" />
    <glyph glyph-name="uniFEBB" unicode="&#x635;" horiz-adv-x="1675" arabic-form="initial" 
d="M-6 0q-74 0 -74 132v18q0 138 74 138h42q94 0 133 34q42 36 51 113l30 263h215l25 -256q3 -32 14 -61q291 533 675 532q190 -1 300 -106q119 -115 120 -322q2 -485 -809 -485h-89q-235 0 -346 114q-117 -114 -318 -114h-43zM758 289h135q429 0 429 185q0 153 -158 153
q-182 0 -406 -338z" />
    <glyph glyph-name="uniFEBC" unicode="&#x635;" horiz-adv-x="1751" arabic-form="medial" 
d="M1756 288q75 0 75 -138v-18q0 -132 -75 -132h-21q-213 0 -336 122q-202 -122 -609 -122h-89q-235 0 -346 114q-117 -114 -318 -114h-43q-74 0 -74 132v18q0 138 74 138h42q92 0 133 34q42 36 51 113l30 263h214l26 -215q7 -56 19 -93q289 524 670 523q190 -1 300 -106
q120 -116 120 -322q0 -76 -21 -143q71 -54 158 -54h20zM758 289h135q429 0 429 185q0 153 -158 153q-182 0 -406 -338z" />
    <glyph glyph-name="uniFEBD" unicode="&#x636;" horiz-adv-x="2589" arabic-form="isolated" 
d="M1672 289h135q429 0 429 185q0 153 -157 153q-183 0 -407 -338zM1615 0q-136 0 -202 42q-12 -116 -63 -221q-161 -327 -617 -325q-304 1 -485.5 162.5t-172.5 460.5q6 252 121 457l20 35l257 -75l-28 -54q-96 -185 -95 -361q3 -352 407 -350q202 0 296 90q184 176 1 689
l-16 48l257 90l96 -295q7 -21 16 -34q294 555 686 554q191 -1 305 -111t115 -317q3 -365 -466 -456q-149 -29 -343 -29h-89zM2071.58 1409.97l78.1055 -78.1064q54.5674 -54.5674 -1.06934 -110.204l-79.1768 -79.1758q-53.4971 -52.4277 -103.784 -2.14062
l-79.1758 80.2461q-56.708 57.7773 -2.14062 112.345l78.1064 77.0361q54.5674 53.4971 109.135 0z" />
    <glyph glyph-name="uniFEBE" unicode="&#x636;" horiz-adv-x="2666" arabic-form="final" 
d="M2671 288q75 0 75 -138v-18q0 -132 -75 -132h-21q-217 0 -336 122q-204 -122 -610 -122h-89q-136 0 -202 42q-12 -116 -63 -221q-160 -326 -617 -325q-304 1 -485 163q-182 161 -173 460q6 252 121 457l20 35l257 -75l-28 -54q-96 -185 -95 -361q2 -176 103 -263
q102 -88 304 -87q202 0 296 90q184 176 1 689l-16 48l257 90l96 -295q7 -21 16 -34q294 555 686 554q189 -1 300 -107q119 -115 120 -321q1 -77 -21 -144q71 -53 163 -53h16zM1672 289h135q429 0 429 185q0 153 -157 153q-183 0 -407 -338zM2071.58 1407.97
l78.1055 -78.1064q54.5674 -54.5674 -1.06934 -110.204l-79.1768 -79.1758q-53.4971 -52.4277 -103.784 -2.14062l-79.1758 80.2461q-56.708 57.7773 -2.14062 112.345l78.1064 77.0361q54.5674 53.4971 109.135 0z" />
    <glyph glyph-name="uniFEBF" unicode="&#x636;" horiz-adv-x="1675" arabic-form="initial" 
d="M1127.58 1406.97l78.1055 -78.1064q54.5674 -54.5674 -1.06934 -110.204l-79.1768 -79.1758q-53.4971 -52.4277 -103.784 -2.14062l-79.1758 80.2461q-56.708 57.7773 -2.14062 112.345l78.1064 77.0361q54.5674 53.4971 109.135 0zM-6 0q-74 0 -74 132v18q0 138 74 138
h42q94 0 133 34q42 36 51 113l30 263h215l25 -256q3 -32 14 -61q291 533 675 532q190 -1 300 -106q119 -115 120 -322q2 -485 -809 -485h-89q-235 0 -346 114q-117 -114 -318 -114h-43zM758 289h135q429 0 429 185q0 153 -158 153q-182 0 -406 -338z" />
    <glyph glyph-name="uniFEC0" unicode="&#x636;" horiz-adv-x="1751" arabic-form="medial" 
d="M1127.58 1406.97l78.1055 -78.1064q54.5674 -54.5674 -1.06934 -110.204l-79.1768 -79.1758q-53.4971 -52.4277 -103.784 -2.14062l-79.1758 80.2461q-56.708 57.7773 -2.14062 112.345l78.1064 77.0361q54.5674 53.4971 109.135 0zM1756 288q75 0 75 -138v-18
q0 -132 -75 -132h-21q-213 0 -336 122q-202 -122 -609 -122h-89q-235 0 -346 114q-117 -114 -318 -114h-43q-74 0 -74 132v18q0 138 74 138h42q92 0 133 34q42 36 51 113l30 263h214l26 -215q7 -56 19 -93q289 524 670 523q190 -1 300 -106q120 -116 120 -322
q0 -76 -21 -143q71 -54 158 -54h20zM758 289h135q429 0 429 185q0 153 -158 153q-182 0 -406 -338z" />
    <glyph glyph-name="uniFEC1" unicode="&#x637;" horiz-adv-x="1508" arabic-form="isolated" 
d="M585 721q190 193 416 192q184 -1 299 -107q120 -110 121 -321q0 -485 -809 -485h-532v287h193q19 35 39 69v1148h273v-783zM580 289h135q429 0 429 185q0 153 -158 153q-182 0 -406 -338z" />
    <glyph glyph-name="uniFEC2" unicode="&#x637;" horiz-adv-x="1572" arabic-form="final" 
d="M1577 288q75 0 75 -138v-18q0 -132 -75 -132h-22q-214 0 -336 122q-202 -122 -607 -122h-532v287h193q19 35 39 69v1148h273v-783q190 193 416 192q241 -1 352 -170q68 -102 68 -258q0 -77 -22 -144q73 -53 161 -53h17zM580 289h135q429 0 429 185q0 153 -158 153
q-182 0 -406 -338z" />
    <glyph glyph-name="uniFEC3" unicode="&#x637;" horiz-adv-x="1356" arabic-form="initial" 
d="M-6 0q-74 0 -74 132v18q0 138 74 138l134 -1q19 35 39 69v1148h273v-783q190 193 416 192q190 -1 299 -106q120 -115 121 -322q2 -485 -809 -485h-473zM435 289h135q429 0 429 185q0 153 -158 153q-182 0 -406 -338z" />
    <glyph glyph-name="uniFEC4" unicode="&#x637;" horiz-adv-x="1427" arabic-form="medial" 
d="M1432 288q75 0 75 -138v-18q0 -132 -75 -132h-21q-213 0 -336 122q-202 -122 -607 -122h-474q-74 0 -74 132v18q0 138 74 138l135 -1q19 35 39 69v1148h273v-783q190 193 416 192q191 -2 300 -106q119 -115 120 -322q0 -77 -22 -144q68 -53 161 -53h16zM436 289h135
q429 0 429 185q0 153 -158 153q-182 0 -406 -338z" />
    <glyph glyph-name="uniFEC5" unicode="&#x638;" horiz-adv-x="1508" arabic-form="isolated" 
d="M585 721q190 193 416 192q184 -1 299 -107q120 -110 121 -321q0 -485 -809 -485h-532v287h193q19 35 39 69v1148h273v-783zM580 289h135q429 0 429 185q0 153 -158 153q-182 0 -406 -338zM1012.58 1407.97l78.1055 -78.1064q54.5674 -54.5674 -1.06934 -110.204
l-79.1768 -79.1758q-53.4971 -52.4277 -103.784 -2.14062l-79.1758 80.2461q-56.708 57.7773 -2.14062 112.345l78.1064 77.0361q54.5674 53.4971 109.135 0z" />
    <glyph glyph-name="uniFEC6" unicode="&#x638;" horiz-adv-x="1572" arabic-form="final" 
d="M1577 288q75 0 75 -138v-18q0 -132 -75 -132h-22q-214 0 -336 122q-202 -122 -607 -122h-532v287h193q19 35 39 69v1148h273v-783q190 193 416 192q241 -1 352 -170q68 -102 68 -258q0 -77 -22 -144q73 -53 161 -53h17zM580 289h135q429 0 429 185q0 153 -158 153
q-182 0 -406 -338zM1013.58 1406.97l78.1055 -78.1064q54.5674 -54.5674 -1.06934 -110.204l-79.1768 -79.1758q-53.4971 -52.4277 -103.784 -2.14062l-79.1758 80.2461q-56.708 57.7773 -2.14062 112.345l78.1064 77.0361q54.5674 53.4971 109.135 0z" />
    <glyph glyph-name="uniFEC7" unicode="&#x638;" horiz-adv-x="1356" arabic-form="initial" 
d="M-6 0q-74 0 -74 132v18q0 138 74 138l134 -1q19 35 39 69v1148h273v-783q190 193 416 192q190 -1 299 -106q120 -115 121 -322q2 -485 -809 -485h-473zM435 289h135q429 0 429 185q0 153 -158 153q-182 0 -406 -338zM889.583 1407.97l78.1055 -78.1064
q54.5674 -54.5674 -1.06934 -110.204l-79.1768 -79.1758q-53.4971 -52.4277 -103.784 -2.14062l-79.1758 80.2461q-56.708 57.7773 -2.14062 112.345l78.1064 77.0361q54.5674 53.4971 109.135 0z" />
    <glyph glyph-name="uniFEC8" unicode="&#x638;" horiz-adv-x="1427" arabic-form="medial" 
d="M1432 288q75 0 75 -138v-18q0 -132 -75 -132h-21q-213 0 -336 122q-202 -122 -607 -122h-474q-74 0 -74 132v18q0 138 74 138l135 -1q19 35 39 69v1148h273v-783q190 193 416 192q191 -2 300 -106q119 -115 120 -322q0 -77 -22 -144q68 -53 161 -53h16zM436 289h135
q429 0 429 185q0 153 -158 153q-182 0 -406 -338zM885.583 1406.97l78.1055 -78.1064q54.5674 -54.5674 -1.06934 -110.204l-79.1768 -79.1758q-53.4971 -52.4277 -103.784 -2.14062l-79.1758 80.2461q-56.708 57.7773 -2.14062 112.345l78.1064 77.0361
q54.5674 53.4971 109.135 0z" />
    <glyph glyph-name="uniFEC9" unicode="&#x639;" horiz-adv-x="1342" arabic-form="isolated" 
d="M1226 -281l69 -257q-185 -73 -453 -73q-371 1 -567 146t-195 429q1 388 347 567q-33 28 -56 57q-144 187 -39 414q61 130 195 192q97 44 201 42q228 -4 420 -150l-103 -236q-176 107 -317 110q-157 4 -168 -104q-13 -109 132 -220q252 32 472 15l52 -4l-32 -277l-47 2
q-517 24 -693 -159q-91 -95 -92 -253q-1 -298 487 -299q218 0 387 58z" />
    <glyph glyph-name="uniFECA" unicode="&#x639;" horiz-adv-x="1304" arabic-form="final" 
d="M1309 288q75 0 75 -138v-18q0 -132 -75 -132h-32q-354 0 -641 314q-283 -165 -283 -363q0 -290 445 -290q210 0 353 50l70 -260q-187 -66 -418 -66q-351 1 -537 141q-187 140 -186 415q0 344 363 567q-153 145 -154 286q-1 167 162 243q123 57 297 56q174 -2 307 -65
q134 -64 137 -216q3 -190 -317 -365q178 -159 401 -159h33zM888 788q-5 31 -170 31q-122 0 -120 -43q4 -62 91 -137q71 37 116 66q86 60 83 83z" />
    <glyph glyph-name="uniFECB" unicode="&#x639;" horiz-adv-x="1156" arabic-form="initial" 
d="M-6 0q-74 0 -74 132v18q0 138 74 138l215 -1q-79 98 -81 223q-5 261 193 394q125 83 273 84q244 1 413 -171l-102 -231l-50 38q-101 75 -223 81q-106 5 -182 -75q-57 -60 -46 -141q17 -116 230 -165l444 94v-292q-388 -126 -797 -126h-287z" />
    <glyph glyph-name="uniFECC" unicode="&#x639;" horiz-adv-x="1074" arabic-form="medial" 
d="M1079 288q75 0 75 -138v-18q0 -132 -75 -132h-70q-297 0 -471 127q-176 -127 -491 -127h-53q-74 0 -74 132v18q0 138 74 138h56q168 0 233 16q-202 134 -203 305q0 170 163 246q121 57 297 55t307 -64q132 -62 136 -221q4 -158 -204 -315q88 -22 227 -22h73zM679 604
q0 32 -144.5 32t-144.5 -42q-1 -51 144 -134q146 84 145 144z" />
    <glyph glyph-name="uniFECD" unicode="&#x63a;" horiz-adv-x="1342" arabic-form="isolated" 
d="M1226 -281l69 -257q-185 -73 -453 -73q-371 1 -567 146t-195 429q1 388 347 567q-33 28 -56 57q-144 187 -39 414q61 130 195 192q97 44 201 42q228 -4 420 -150l-103 -236q-176 107 -317 110q-157 4 -168 -104q-13 -109 132 -220q252 32 472 15l52 -4l-32 -277l-47 2
q-517 24 -693 -159q-91 -95 -92 -253q-1 -298 487 -299q218 0 387 58zM766.583 1698.97l78.1055 -78.1064q54.5674 -54.5674 -1.06934 -110.204l-79.1768 -79.1758q-53.4971 -52.4277 -103.784 -2.14062l-79.1758 80.2461q-56.708 57.7773 -2.14062 112.345l78.1064 77.0361
q54.5674 53.4971 109.135 0z" />
    <glyph glyph-name="uniFECE" unicode="&#x63a;" horiz-adv-x="1304" arabic-form="final" 
d="M1309 288q75 0 75 -138v-18q0 -132 -75 -132h-32q-354 0 -641 314q-283 -165 -283 -363q0 -290 445 -290q210 0 353 50l70 -260q-187 -66 -418 -66q-351 1 -537 141q-187 140 -186 415q0 344 363 567q-153 145 -154 286q-1 167 162 243q123 57 297 56q174 -2 307 -65
q134 -64 137 -216q3 -190 -317 -365q178 -159 401 -159h33zM888 788q-5 31 -170 31q-122 0 -120 -43q4 -62 91 -137q71 37 116 66q86 60 83 83zM790.583 1586.97l78.1055 -78.1064q54.5674 -54.5674 -1.06934 -110.204l-79.1768 -79.1758
q-53.4971 -52.4277 -103.784 -2.14062l-79.1758 80.2461q-56.708 57.7773 -2.14062 112.345l78.1064 77.0361q54.5674 53.4971 109.135 0z" />
    <glyph glyph-name="uniFECF" unicode="&#x63a;" horiz-adv-x="1156" arabic-form="initial" 
d="M-6 0q-74 0 -74 132v18q0 138 74 138l215 -1q-79 98 -81 223q-5 261 193 394q125 83 273 84q244 1 413 -171l-102 -231l-50 38q-101 75 -223 81q-106 5 -182 -75q-57 -60 -46 -141q17 -116 230 -165l444 94v-292q-388 -126 -797 -126h-287zM657.583 1452.97
l78.1055 -78.1064q54.5674 -54.5674 -1.06934 -110.204l-79.1768 -79.1758q-53.4971 -52.4277 -103.784 -2.14062l-79.1758 80.2461q-56.708 57.7773 -2.14062 112.345l78.1064 77.0361q54.5674 53.4971 109.135 0z" />
    <glyph glyph-name="uniFED0" unicode="&#x63a;" horiz-adv-x="1074" arabic-form="medial" 
d="M1079 288q75 0 75 -138v-18q0 -132 -75 -132h-70q-297 0 -471 127q-176 -127 -491 -127h-53q-74 0 -74 132v18q0 138 74 138h56q168 0 233 16q-202 134 -203 305q0 170 163 246q121 57 297 55t307 -64q132 -62 136 -221q4 -158 -204 -315q88 -22 227 -22h73zM679 604
q0 32 -144.5 32t-144.5 -42q-1 -51 144 -134q146 84 145 144zM576.583 1392.97l78.1055 -78.1064q54.5674 -54.5674 -1.06934 -110.204l-79.1768 -79.1758q-53.4971 -52.4277 -103.784 -2.14062l-79.1758 80.2461q-56.708 57.7773 -2.14062 112.345l78.1064 77.0361
q54.5674 53.4971 109.135 0z" />
    <glyph glyph-name="uniFED1" unicode="&#x641;" horiz-adv-x="1892" arabic-form="isolated" 
d="M958 287q109 -2 243 5q175 10 269 62q-303 -17 -399 196q-28 61 -31 128q-12 239 129 399q96 108 233 115q193 9 297 -132t118 -408q15 -317 -170 -486q-185 -168 -711 -166q-546 3 -730 236q-118 150 -118 367q0 138 40 250l15 43l247 -61l-10 -47q-21 -104 -20 -166
q2 -129 71 -205q70 -75 219 -106q98 -20 308 -24zM1320 661q38 -54 230 -27q-20 269 -133 268q-53 -1 -83 -57q-28 -54 -28 -131q0 -33 14 -53zM1482.58 1640.97l78.1055 -78.1064q54.5674 -54.5674 -1.06934 -110.204l-79.1768 -79.1758
q-53.4971 -52.4277 -103.784 -2.14062l-79.1758 80.2461q-56.708 57.7773 -2.14062 112.345l78.1064 77.0361q54.5674 53.4971 109.135 0z" />
    <glyph glyph-name="uniFED2" unicode="&#x641;" horiz-adv-x="2081" arabic-form="final" 
d="M1599.58 1434.97l78.1055 -78.1064q54.5674 -54.5674 -1.06934 -110.204l-79.1768 -79.1758q-53.4971 -52.4277 -103.784 -2.14062l-79.1758 80.2461q-56.708 57.7773 -2.14062 112.345l78.1064 77.0361q54.5674 53.4971 109.135 0zM2086 288q75 -1 75 -138v-18
q0 -132 -75 -132h-66q-285 0 -471 102q-173 -101 -518 -101l-105 -1q-543 -1 -730 236q-118 150 -118 367q0 138 40 250l15 43l247 -61l-10 -47q-21 -104 -20 -166q2 -129 72 -205t201 -102q133 -26 357 -26h63q76 0 216 9q-109 123 -110 299t141 283q153 117 361 77
q98 -19 170 -72q132 -100 134 -297q3 -168 -112 -290q95 -8 174 -9zM1456 655q-37 -37 -37 -88t35 -93q65 -75 102 -75t85 61q47 59 47 109q0 45 -38 84q-41 39 -98.5 38.5t-95.5 -36.5z" />
    <glyph glyph-name="uniFED3" unicode="&#x641;" horiz-adv-x="934" arabic-form="initial" 
d="M-6 288h202q158 0 240 18q89 21 125 57q-51 -6 -97 -6q-216 -1 -318 119q-70 79 -76 205q-12 241 127 399q97 109 233 115q194 8 298 -133q104 -142 117 -407q2 -44 2 -85q-1 -320 -155 -449q-144 -121 -478 -121h-220q-74 0 -74 132v18q0 138 74 138zM349 664
q37 -54 229 -27q-20 269 -133 268q-53 -1 -82 -56t-29 -132q0 -33 15 -53zM498.583 1642.97l78.1055 -78.1064q54.5674 -54.5674 -1.06934 -110.204l-79.1768 -79.1758q-53.4971 -52.4277 -103.784 -2.14062l-79.1758 80.2461q-56.708 57.7773 -2.14062 112.345
l78.1064 77.0361q54.5674 53.4971 109.135 0z" />
    <glyph glyph-name="uniFED4" unicode="&#x641;" horiz-adv-x="1083" arabic-form="medial" 
d="M1088 288q75 0 75 -138v-18q0 -132 -75 -132h-86q-295 0 -450 99q-157 -99 -448 -99h-110q-74 0 -74 132v18q0 138 74 138h91q113 0 177 8q-111 123 -111 300q-1 178 141 284q113 85 267 85q156 0 264 -81q135 -101 135 -285t-114 -303q81 -8 165 -8h79zM456 654
q-37 -37 -37 -87.5t36 -92.5q64 -76 101 -76t86 62q46 58 46 108q0 45 -38 84q-40 39 -97.5 38.5t-96.5 -36.5zM609.583 1434.97l78.1055 -78.1064q54.5674 -54.5674 -1.06934 -110.204l-79.1768 -79.1758q-53.4971 -52.4277 -103.784 -2.14062l-79.1758 80.2461
q-56.708 57.7773 -2.14062 112.345l78.1064 77.0361q54.5674 53.4971 109.135 0z" />
    <glyph glyph-name="uniFED5" unicode="&#x642;" horiz-adv-x="1510" arabic-form="isolated" 
d="M920 401q38 -54 230 -27q-20 269 -133 268q-53 -1 -83 -56q-28 -55 -28 -132q0 -33 14 -53zM1421 231q2 -241 -104 -398q-167 -247 -566 -246q-323 1 -492.5 167t-168.5 484q0 208 72 421l16 44l261 -73l-17 -50q-60 -178 -60 -359t95 -270t286 -88.5t283.5 60
t118.5 180.5q-316 -41 -427 100q-72 92 -78 215q-12 241 129 399q96 108 233 115q196 10 300 -131.5t115 -408.5q3 -101 4 -161zM919.583 1386.97l79.1758 -78.1064q12.8389 -13.9092 19.2588 -26.749q7.49023 13.9102 21.3994 27.8193l77.0361 77.0361
q55.6367 53.4971 109.134 0l79.1768 -78.1064q53.4971 -54.5674 -2.14062 -110.204l-78.1055 -79.1758q-53.498 -52.4277 -103.785 -2.14062l-80.2461 80.2461q-14.9785 14.9795 -21.3984 29.959q-7.49023 -14.9795 -22.4688 -28.8887l-78.1064 -79.1758
q-53.4971 -52.4277 -103.785 -2.14062l-80.2451 80.2461q-56.708 57.7773 -1.07031 112.345l77.0361 77.0361q55.6367 53.4971 109.135 0z" />
    <glyph glyph-name="uniFED6" unicode="&#x642;" horiz-adv-x="1506" arabic-form="final" 
d="M1511 288q75 0 75 -138v-18q0 -132 -75 -132l-98 1q-79 -505 -681 -505q-304 1 -473.5 167t-168.5 484q0 208 73 421l15 45l262 -74l-17 -50q-61 -178 -61 -358q0 -359 383 -359q192 0 285 57.5t117 171.5h-48q-279 1 -377 135q-69 96 -69 225q0 245 140 393
q98 105 243 105q224 0 324 -205q62 -127 68 -366h83zM952.5 313q30.5 -24 94 -24t113.5 1q-9 280 -131 279q-31 -1 -60 -30q-47 -51 -47 -150q0 -52 30.5 -76zM912.583 1333.97l79.1758 -78.1064q12.8389 -13.9092 19.2588 -26.749q7.49023 13.9102 21.3994 27.8193
l77.0361 77.0361q55.6367 53.4971 109.134 0l79.1768 -78.1064q53.4971 -54.5674 -2.14062 -110.204l-78.1055 -79.1758q-53.498 -52.4277 -103.785 -2.14062l-80.2461 80.2461q-14.9785 14.9795 -21.3984 29.959q-7.49023 -14.9795 -22.4688 -28.8887l-78.1064 -79.1758
q-53.4971 -52.4277 -103.785 -2.14062l-80.2451 80.2461q-56.708 57.7773 -1.07031 112.345l77.0361 77.0361q55.6367 53.4971 109.135 0z" />
    <glyph glyph-name="uniFED7" unicode="&#x642;" horiz-adv-x="934" arabic-form="initial" 
d="M-6 288h202q158 0 240 18q89 21 125 57q-51 -6 -97 -6q-216 -1 -318 119q-70 79 -76 205q-12 241 127 399q97 109 233 115q194 8 298 -133q104 -142 117 -407q2 -44 2 -85q-1 -320 -155 -449q-144 -121 -478 -121h-220q-74 0 -74 132v18q0 138 74 138zM349 664
q37 -54 229 -27q-20 269 -133 268q-53 -1 -82 -56t-29 -132q0 -33 15 -53zM345.583 1639.97l79.1758 -78.1064q12.8389 -13.9092 19.2588 -26.749q7.49023 13.9102 21.3994 27.8193l77.0361 77.0361q55.6367 53.4971 109.134 0l79.1768 -78.1064
q53.4971 -54.5674 -2.14062 -110.204l-78.1055 -79.1758q-53.498 -52.4277 -103.785 -2.14062l-80.2461 80.2461q-14.9785 14.9795 -21.3984 29.959q-7.49023 -14.9795 -22.4688 -28.8887l-78.1064 -79.1758q-53.4971 -52.4277 -103.785 -2.14062l-80.2451 80.2461
q-56.708 57.7773 -1.07031 112.345l77.0361 77.0361q55.6367 53.4971 109.135 0z" />
    <glyph glyph-name="uniFED8" unicode="&#x642;" horiz-adv-x="1083" arabic-form="medial" 
d="M1088 288q75 0 75 -138v-18q0 -132 -75 -132h-86q-295 0 -450 99q-157 -99 -448 -99h-110q-74 0 -74 132v18q0 138 74 138h91q113 0 177 8q-111 123 -111 300q-1 178 141 284q113 85 267 85q156 0 264 -81q135 -101 135 -285t-114 -303q81 -8 165 -8h79zM456 654
q-37 -37 -37 -87.5t36 -92.5q64 -76 101 -76t86 62q46 58 46 108q0 45 -38 84q-40 39 -97.5 38.5t-96.5 -36.5zM444.583 1434.97l79.1758 -78.1064q12.8389 -13.9092 19.2588 -26.749q7.49023 13.9102 21.3994 27.8193l77.0361 77.0361q55.6367 53.4971 109.134 0
l79.1768 -78.1064q53.4971 -54.5674 -2.14062 -110.204l-78.1055 -79.1758q-53.498 -52.4277 -103.785 -2.14062l-80.2461 80.2461q-14.9785 14.9795 -21.3984 29.959q-7.49023 -14.9795 -22.4688 -28.8887l-78.1064 -79.1758q-53.4971 -52.4277 -103.785 -2.14062
l-80.2451 80.2461q-56.708 57.7773 -1.07031 112.345l77.0361 77.0361q55.6367 53.4971 109.135 0z" />
    <glyph glyph-name="uniFED9" unicode="&#x643;" horiz-adv-x="1934" arabic-form="isolated" 
d="M926 0q-543 -1 -730 236q-118 150 -118 367q0 138 40 250l15 43l247 -61l-10 -47q-21 -104 -20 -166q2 -130 71 -205q125 -136 526 -130q177 3 249 9q189 15 271 78t80 175v955h272v-988q1 -173 -91 -291q-93 -117 -262 -171q-169 -53 -540 -54zM719 834q93 -12 160 -12
t117.5 19.5t61 34t10.5 19v7.5q-5 21 -89 34t-147 82.5t-41 186.5q37 207 410 233l54 3v-195l-46 -3q-154 -12 -213 -62q-10 -9 -10 -22q0 -36 86 -49t140.5 -60t54.5 -128q0 -160 -154 -247t-409 -44l-42 7v203z" />
    <glyph glyph-name="uniFEDA" unicode="&#x643;" horiz-adv-x="2002" arabic-form="final" 
d="M2007 288q75 0 75 -138v-18q0 -132 -75 -132h-63q-182 0 -336 115q-64 -36 -150 -63q-161 -51 -532 -52q-543 -1 -730 236q-118 150 -118 367q0 138 40 250l15 43l247 -61l-10 -47q-21 -104 -20 -166q2 -130 71 -205q125 -136 526 -130q177 3 249 9q189 15 271 78t80 175
v955h272v-988q0 -102 -28 -175q54 -53 161 -53h55zM719 834q93 -12 163 -12q64 0 112 18q53 21 69 43q3 4 4 7t1 7q0 2 -0.5 4.5t-4.5 7t-11 8.5t-22 8.5t-36 8.5q-99 15 -154 76t-53 156q0 20 4 39q13 73 69 123.5t140.5 76t200.5 33.5l54 3v-195l-46 -3q-78 -6 -132 -23
q-91 -28 -91 -56q0 -19 12.5 -30.5t53.5 -20.5q7 -1 15 -2q91 -14 145.5 -61t54.5 -125q0 -84 -43 -149q-39 -61 -114 -103q-76 -43 -179.5 -53t-226.5 11l-42 7v203z" />
    <glyph glyph-name="uniFEDB" unicode="&#x643;" horiz-adv-x="1001" arabic-form="initial" 
d="M-6 0q-74 0 -74 132v18q0 138 74 138h319q203 0 254 55q53 57 -56 191q-114 141 -406 323q-110 69 -110 200q0 111 49 167q47 54 108 77l789 304v-290l-639 -240q294 -215 366 -293q141 -153 172 -304.5t-57 -289.5q-120 -188 -422 -188h-367z" />
    <glyph glyph-name="uniFEDC" unicode="&#x643;" horiz-adv-x="1054" arabic-form="medial" 
d="M1059 288q75 0 75 -138v-18q0 -132 -75 -132h-24q-193 0 -299 128q-137 -128 -375 -128h-367q-74 0 -74 132v18q0 138 74 138h319q202 0 250 51q25 27 17 73q-14 76 -134 191q-114 111 -341 254q-107 68 -109 203q-2 181 156 241l789 304v-290l-639 -240
q224 -165 297 -233q200 -185 260 -401q23 -81 66 -118q41 -35 112 -35h22z" />
    <glyph glyph-name="uniFEDD" unicode="&#x644;" horiz-adv-x="1484" arabic-form="isolated" 
d="M742.5 -464q-304.5 2 -485.5 163t-172 460q6 252 121 457l20 35l257 -75l-28 -54q-96 -185 -94 -371q0 -164 101.5 -252t281.5 -88.5t264 89.5t85 289l3 1313h272l-1 -1296q0 -325 -160 -498.5t-464.5 -171.5z" />
    <glyph glyph-name="uniFEDE" unicode="&#x644;" horiz-adv-x="1556" arabic-form="final" 
d="M1561 288q75 0 75 -138v-18q0 -132 -75 -132h-31q-100 0 -169 30q-24 -251 -163 -400q-162 -176 -461 -174t-472 156q-189 168 -180 467q6 252 121 457l20 35l257 -75l-28 -54q-96 -185 -94 -371q1 -166 95 -248q108 -92 287 -92q182 -1 266 87q84 89 84 281v371v1033
h272v-995q0 -220 159 -220h37z" />
    <glyph glyph-name="uniFEDF" unicode="&#x644;" horiz-adv-x="597" arabic-form="initial" 
d="M-6 0q-74 0 -74 132v18q0 138 74 138h59q102 0 134 84q20 53 20 145v986h274v-971q0 -221 -59 -338q-94 -194 -363 -194h-65z" />
    <glyph glyph-name="uniFEE0" unicode="&#x644;" horiz-adv-x="670" arabic-form="medial" 
d="M-6 0q-74 0 -74 132v18q0 138 74 138h57q160 0 160 188v1025h273v-1025q0 -188 149 -188h42q75 0 75 -138v-18q0 -132 -75 -132h-52q-156 0 -276 107q-118 -107 -283 -107h-70z" />
    <glyph glyph-name="uniFEE1" unicode="&#x645;" horiz-adv-x="1222" arabic-form="isolated" 
d="M565 383q300 -33 329 0q11 12 -19 83q-63 142 -202 142q-104 -1 -108 -225zM80 -136q0 396 221 494q1 313 154 446q90 79 212 79q171 0 289 -98.5t177 -284.5q42 -133 3 -214q-71 -147 -182 -181q-69 -21 -199 -10t-238 16t-136 -41q-29 -46 -29 -226v-497h-272v517z" />
    <glyph glyph-name="uniFEE2" unicode="&#x645;" horiz-adv-x="1311" arabic-form="final" 
d="M1316 288q75 0 75 -138v-18q0 -132 -75 -132h-14q-102 0 -217 83q-101 -133 -290 -128t-277 147q-62 99 -72 347q-93 -82 -93 -316v-658h-273v676v27q-3 296 184 458q176 152 504 142q183 -6 270 -54q168 -94 148 -373q48 -63 116 -63h14zM696 510v-40q-2 -95 10 -150
q19 -91 101 -101q51 -5 80 20q28 25 39 89q8 51 6 101q-5 87 -129 88q-62 0 -107 -7z" />
    <glyph glyph-name="uniFEE3" unicode="&#x645;" horiz-adv-x="990" arabic-form="initial" 
d="M-6 0q-74 0 -74 132v18q0 138 74 138h22q67 0 80 46q29 95 43 139q113 343 389 343q199 0 302 -145q90 -126 90 -299q0 -247 -153 -340q-79 -47 -192 -47q-184 -1 -316 113q-92 -98 -239 -98h-26zM381 341q107 -99 209 -79q70 14 67 108q-4 102 -48 140q-28 24 -77 23
q-103 -1 -151 -192z" />
    <glyph glyph-name="uniFEE4" unicode="&#x645;" horiz-adv-x="1035" arabic-form="medial" 
d="M1040 288q75 0 75 -138v-18q0 -132 -75 -132h-13q-127 0 -210 77q-87 -93 -258 -92q-171 0 -302 111q-91 -96 -237 -96h-26q-74 0 -74 132v18q0 138 74 138h22q67 0 80 46q28 94 43 139q111 333 389 333q303 0 376 -326q27 -121 52 -157q26 -35 71 -35h13zM381 341
q107 -99 209 -79q70 14 67 108q-4 92 -48 130q-28 24 -77 23q-106 -1 -151 -182z" />
    <glyph glyph-name="uniFEE5" unicode="&#x646;" horiz-adv-x="1506" arabic-form="isolated" 
d="M1423 233q-1 -155 -76 -308.5t-228.5 -236t-370.5 -82.5q-319 1 -500.5 162.5t-172.5 460.5q6 253 121 457l20 35l257 -75l-28 -54q-96 -185 -94 -371q1 -166 102.5 -253.5t303.5 -87t296 90.5q184 176 1 689l-17 48l259 88l18 -43q109 -261 109 -520zM804.583 976.969
l78.1055 -78.1064q54.5674 -54.5674 -1.06934 -110.204l-79.1768 -79.1758q-53.4971 -52.4277 -103.784 -2.14062l-79.1758 80.2461q-56.708 57.7773 -2.14062 112.345l78.1064 77.0361q54.5674 53.4971 109.135 0z" />
    <glyph glyph-name="uniFEE6" unicode="&#x646;" horiz-adv-x="1560" arabic-form="final" 
d="M1565 288q75 0 75 -138v-18q0 -132 -75 -132h-21q-63 0 -133 26q-30 -240 -200 -384q-173 -147 -478 -146q-304 1 -485 163q-182 161 -173 460q6 252 121 457l20 35l257 -75l-28 -54q-96 -185 -95 -361q3 -351 403 -350q206 0 300 90q184 175 1 689l-16 48l257 90
l96 -295q34 -105 158 -105h16zM793.583 866.969l78.1055 -78.1064q54.5674 -54.5674 -1.06934 -110.204l-79.1768 -79.1758q-53.4971 -52.4277 -103.784 -2.14062l-79.1758 80.2461q-56.708 57.7773 -2.14062 112.345l78.1064 77.0361q54.5674 53.4971 109.135 0z" />
    <glyph glyph-name="uniFEE7" unicode="&#x646;" horiz-adv-x="699" arabic-form="initial" 
d="M-6 0q-74 0 -74 132v18q0 138 74 138h119q132 0 180 54q44 49 43 172q-1 151 -49 315l272 52q51 -196 50 -353q0 -308 -161 -435q-117 -93 -345 -93h-109zM389.583 1318.97l78.1055 -78.1064q54.5674 -54.5674 -1.06934 -110.204l-79.1768 -79.1758
q-53.4971 -52.4277 -103.784 -2.14062l-79.1758 80.2461q-56.708 57.7773 -2.14062 112.345l78.1064 77.0361q54.5674 53.4971 109.135 0z" />
    <glyph glyph-name="uniFEE8" unicode="&#x646;" horiz-adv-x="749" arabic-form="medial" 
d="M754 288q75 0 75 -138v-18q0 -132 -75 -132h-22q-171 0 -292 108q-125 -108 -335 -108h-111q-74 0 -74 132v18q0 138 74 138h107q195 0 211 198l19 231h220l20 -231q17 -198 167 -198h16zM449.583 1234.97l78.1055 -78.1064q54.5674 -54.5674 -1.06934 -110.204
l-79.1768 -79.1758q-53.4971 -52.4277 -103.784 -2.14062l-79.1758 80.2461q-56.708 57.7773 -2.14062 112.345l78.1064 77.0361q54.5674 53.4971 109.135 0z" />
    <glyph glyph-name="uniFEE9" unicode="&#x647;" horiz-adv-x="972" arabic-form="isolated" 
d="M485 629q-151 -142 -151 -227q1 -117 167 -117q152 0 149 107q-3 100 -165 237zM435 1035q467 -337 475 -635q6 -231 -167 -336q-97 -59 -240 -59q-280 0 -381 181q-49 86 -48 203q0 202 218 431l-49 41l152 203z" />
    <glyph glyph-name="uniFEEA" unicode="&#x647;" horiz-adv-x="1093" arabic-form="final" 
d="M1098 288q75 0 75 -138v-18q0 -132 -75 -132h-20q-261 0 -351 182l-76 -5q-294 -18 -443 88q-125 91 -124 264q1 337 518 442l-5 41l261 34l77 -582q24 -176 147 -176h16zM668 451l-33 255q-149 -31 -215 -73q-65 -43 -65 -87q0 -122 282 -98z" />
    </font>
</defs>
</svg>
